<?xml version="1.0" encoding="UTF-8" standalone="no"?>
<!-- Created with Inkscape (http://www.inkscape.org/) -->

<svg
   xmlns:dc="http://purl.org/dc/elements/1.1/"
   xmlns:cc="http://creativecommons.org/ns#"
   xmlns:rdf="http://www.w3.org/1999/02/22-rdf-syntax-ns#"
   xmlns:svg="http://www.w3.org/2000/svg"
   xmlns="http://www.w3.org/2000/svg"
   xmlns:sodipodi="http://sodipodi.sourceforge.net/DTD/sodipodi-0.dtd"
   xmlns:inkscape="http://www.inkscape.org/namespaces/inkscape"
   width="169.33333mm"
   height="180.96503mm"
   viewBox="0 0 599.99999 641.21467"
   id="svg2"
   version="1.1"
   inkscape:version="0.91 r13725"
   sodipodi:docname="Pineapple3.svg">
  <defs
     id="defs4" />
  <sodipodi:namedview
     id="base"
     pagecolor="#ffffff"
     bordercolor="#666666"
     borderopacity="1.0"
     inkscape:pageopacity="0.0"
     inkscape:pageshadow="2"
     inkscape:zoom="1.0448919"
     inkscape:cx="299.99999"
     inkscape:cy="320.60733"
     inkscape:document-units="px"
     inkscape:current-layer="layer1"
     showgrid="false"
     fit-margin-top="0"
     fit-margin-left="0"
     fit-margin-right="0"
     fit-margin-bottom="0"
     inkscape:window-width="1600"
     inkscape:window-height="837"
     inkscape:window-x="-8"
     inkscape:window-y="-8"
     inkscape:window-maximized="1" />
  <metadata
     id="metadata7">
    <rdf:RDF>
      <cc:Work
         rdf:about="">
        <dc:format>image/svg+xml</dc:format>
        <dc:type
           rdf:resource="http://purl.org/dc/dcmitype/StillImage" />
        <dc:title></dc:title>
      </cc:Work>
    </rdf:RDF>
  </metadata>
  <g
     inkscape:label="Layer 1"
     inkscape:groupmode="layer"
     id="layer1"
     transform="translate(-97.224903,695.47575)">
    <g
       id="g5024">
      <path
         inkscape:connector-curvature="0"
         style="font-style:normal;font-variant:normal;font-weight:normal;font-stretch:normal;letter-spacing:normal;word-spacing:normal;text-anchor:start;fill:#3d995c;fill-opacity:1;fill-rule:evenodd;stroke:#3d995c;stroke-width:0;stroke-linecap:butt;stroke-linejoin:miter;stroke-miterlimit:10.43299961;stroke-dasharray:none;stroke-dashoffset:0;stroke-opacity:1"
         id="path112"
         d="m 303.91941,-613.12929 -26.75899,11.04019 c 0,0 15.36655,7.94894 30.55647,11.4818 15.14576,3.97447 80.01202,7.50733 80.01202,7.50733 l -83.8095,-30.02932 z" />
      <path
         inkscape:connector-curvature="0"
         style="font-style:normal;font-variant:normal;font-weight:normal;font-stretch:normal;letter-spacing:normal;word-spacing:normal;text-anchor:start;fill:#308a2a;fill-opacity:1;stroke:#000000;stroke-width:7.61782551;stroke-linecap:butt;stroke-linejoin:miter;stroke-miterlimit:10.43299961;stroke-dasharray:none;stroke-dashoffset:0;stroke-opacity:1"
         id="path114"
         d="m 303.91941,-613.12929 -26.75899,11.04019 c 0,0 15.36655,7.94894 30.55647,11.4818 15.14576,3.97447 80.01202,7.50733 80.01202,7.50733 l -83.8095,-30.02932 z" />
      <path
         inkscape:connector-curvature="0"
         style="font-style:normal;font-variant:normal;font-weight:normal;font-stretch:normal;letter-spacing:normal;word-spacing:normal;text-anchor:start;fill:#3d995c;fill-opacity:1;fill-rule:evenodd;stroke:#3d995c;stroke-width:0;stroke-linecap:butt;stroke-linejoin:miter;stroke-miterlimit:10.43299961;stroke-dasharray:none;stroke-dashoffset:0;stroke-opacity:1"
         id="path116"
         d="m 418.10874,-560.13638 0,0 0.13247,0 0.17663,0 0.22079,-0.44161 0.30909,0 0.39741,-0.44161 0.92729,-0.44161 1.14808,-0.88321 1.36886,-0.88322 1.6338,-1.32482 1.76627,-1.32482 1.94289,-1.32482 2.11953,-1.76643 2.29615,-1.76643 2.42862,-2.20804 2.51693,-1.76643 2.64941,-2.20804 2.73772,-2.64964 2.82603,-2.20804 2.91434,-2.64965 2.91435,-3.09125 3.00266,-2.64964 3.00265,-3.09126 3.00266,-3.09125 3.00266,-3.09125 3.00266,-3.09126 3.00266,-3.53286 2.91434,-3.53286 2.87019,-3.53286 2.78188,-3.53286 2.73771,-3.97446 2.60525,-3.53286 2.47278,-3.97447 2.38446,-3.97447 2.20784,-3.97447 c 0,0 -57.09467,7.50733 -76.21454,41.95272 0,0 34.30979,-49.90165 38.10727,-72.86524 0,0 -49.49971,41.95271 -57.09466,61.38344 0,0 26.58235,-61.38344 18.98739,-83.90543 0,0 -39.34365,26.49645 -35.54617,68.44917 0,0 -25.34597,-60.94184 -44.33337,-64.4747 0,0 -19.16403,46.8104 44.33337,64.4747 l -2.42862,0 c 0,0 -69.85597,-29.1461 -87.60698,-15.01466 0,0 26.5382,41.95272 83.63287,45.48558 0,0 -87.43035,-7.50733 -98.99942,3.97447 0,0 45.70223,18.98912 64.86626,15.45626 0,0 45.70223,-3.97447 79.87954,11.04019 z" />
      <path
         inkscape:connector-curvature="0"
         style="font-style:normal;font-variant:normal;font-weight:normal;font-stretch:normal;letter-spacing:normal;word-spacing:normal;text-anchor:start;fill:#308a2a;fill-opacity:1;stroke:#000000;stroke-width:7.61782551;stroke-linecap:butt;stroke-linejoin:miter;stroke-miterlimit:10.43299961;stroke-dasharray:none;stroke-dashoffset:0;stroke-opacity:1"
         id="path118"
         d="m 418.10874,-560.13638 0,0 0.13247,0 0.17663,0 0.22079,-0.44161 0.30909,0 0.39741,-0.44161 0.92729,-0.44161 1.14808,-0.88321 1.36886,-0.88322 1.6338,-1.32482 1.76627,-1.32482 1.94289,-1.32482 2.11953,-1.76643 2.29615,-1.76643 2.42862,-2.20804 2.51693,-1.76643 2.64941,-2.20804 2.73772,-2.64964 2.82603,-2.20804 2.91434,-2.64965 2.91435,-3.09125 3.00266,-2.64964 3.00265,-3.09126 3.00266,-3.09125 3.00266,-3.09125 3.00266,-3.09126 3.00266,-3.53286 2.91434,-3.53286 2.87019,-3.53286 2.78188,-3.53286 2.73771,-3.97446 2.60525,-3.53286 2.47278,-3.97447 2.38446,-3.97447 2.20784,-3.97447 c 0,0 -57.09467,7.50733 -76.21454,41.95272 0,0 34.30979,-49.90165 38.10727,-72.86524 0,0 -49.49971,41.95271 -57.09466,61.38344 0,0 26.58235,-61.38344 18.98739,-83.90543 0,0 -39.34365,26.49645 -35.54617,68.44917 0,0 -25.34597,-60.94184 -44.33337,-64.4747 0,0 -19.16403,46.8104 44.33337,64.4747 l -2.42862,0 c 0,0 -69.85597,-29.1461 -87.60698,-15.01466 0,0 26.5382,41.95272 83.63287,45.48558 0,0 -87.43035,-7.50733 -98.99942,3.97447 0,0 45.70223,18.98912 64.86626,15.45626 0,0 45.70223,-3.97447 79.87954,11.04019 z" />
      <path
         inkscape:connector-curvature="0"
         style="font-style:normal;font-variant:normal;font-weight:normal;font-stretch:normal;letter-spacing:normal;word-spacing:normal;text-anchor:start;fill:#ff6600;fill-opacity:1;fill-rule:evenodd;stroke:#ff6600;stroke-width:0;stroke-linecap:butt;stroke-linejoin:miter;stroke-miterlimit:10.43299961;stroke-dasharray:none;stroke-dashoffset:0;stroke-opacity:1"
         id="path120"
         d="m 433.43113,-285.4565 5.56375,-3.53286 5.25466,-4.41607 4.90139,-4.41608 4.63646,-5.29929 4.32736,-5.29929 4.06242,-5.7409 3.70917,-6.1825 3.44422,-6.18251 3.17929,-6.62411 2.87019,-6.62412 2.56109,-7.50732 2.34031,-7.06572 1.98705,-7.50733 1.76627,-7.94894 1.45717,-7.94893 1.23639,-7.94894 0.92729,-7.94893 0.66235,-8.39055 0.44157,-7.94893 0.13247,-8.39055 -0.0883,-8.39054 -0.35326,-8.39054 -0.61819,-8.39054 -0.83898,-7.94894 -1.10392,-8.39054 -1.36886,-8.39055 -1.58964,-7.94893 -1.81042,-7.94894 -2.03122,-7.94893 -2.29615,-7.50733 -2.51693,-7.50733 -2.69356,-7.06572 c -22.96151,-56.96737 -77.45093,-63.59148 -119.39983,-56.96737 -22.91735,2.20804 -33.11756,7.50733 -59.65576,41.95271 -26.75899,34.00378 -34.35395,52.99291 -30.55647,113.93475 3.79748,61.38344 41.94891,106.86902 68.66374,129.83261 26.58236,22.96359 72.28458,18.98912 102.79689,0 z" />
      <path
         inkscape:connector-curvature="0"
         style="font-style:normal;font-variant:normal;font-weight:normal;font-stretch:normal;letter-spacing:normal;word-spacing:normal;text-anchor:start;fill:none;stroke:#000000;stroke-width:7.61782551;stroke-linecap:butt;stroke-linejoin:miter;stroke-miterlimit:10.43299961;stroke-dasharray:none;stroke-dashoffset:0;stroke-opacity:1"
         id="path122"
         d="m 433.43113,-285.4565 5.56375,-3.53286 5.25466,-4.41607 4.90139,-4.41608 4.63646,-5.29929 4.32736,-5.29929 4.06242,-5.7409 3.70917,-6.1825 3.44422,-6.18251 3.17929,-6.62411 2.87019,-6.62412 2.56109,-7.50732 2.34031,-7.06572 1.98705,-7.50733 1.76627,-7.94894 1.45717,-7.94893 1.23639,-7.94894 0.92729,-7.94893 0.66235,-8.39055 0.44157,-7.94893 0.13247,-8.39055 -0.0883,-8.39054 -0.35326,-8.39054 -0.61819,-8.39054 -0.83898,-7.94894 -1.10392,-8.39054 -1.36886,-8.39055 -1.58964,-7.94893 -1.81042,-7.94894 -2.03122,-7.94893 -2.29615,-7.50733 -2.51693,-7.50733 -2.69356,-7.06572 c -22.96151,-56.96737 -77.45093,-63.59148 -119.39983,-56.96737 -22.91735,2.20804 -33.11756,7.50733 -59.65576,41.95271 -26.75899,34.00378 -34.35395,52.99291 -30.55647,113.93475 3.79748,61.38344 41.94891,106.86902 68.66374,129.83261 26.58236,22.96359 72.28458,18.98912 102.79689,0 z" />
      <path
         inkscape:connector-curvature="0"
         style="font-style:normal;font-variant:normal;font-weight:normal;font-stretch:normal;letter-spacing:normal;word-spacing:normal;text-anchor:start;fill:none;stroke:#000000;stroke-width:3.80895686;stroke-linecap:butt;stroke-linejoin:miter;stroke-miterlimit:10.43299961;stroke-dasharray:none;stroke-dashoffset:0;stroke-opacity:1"
         id="path124"
         d="m 382.56257,-570.29336 c 0,0 95.20193,75.07328 96.57079,83.90543" />
      <path
         inkscape:connector-curvature="0"
         style="font-style:normal;font-variant:normal;font-weight:normal;font-stretch:normal;letter-spacing:normal;word-spacing:normal;text-anchor:start;fill:none;stroke:#000000;stroke-width:3.80895686;stroke-linecap:butt;stroke-linejoin:miter;stroke-miterlimit:10.43299961;stroke-dasharray:none;stroke-dashoffset:0;stroke-opacity:1"
         id="path126"
         d="m 325.4679,-562.34442 c 0,0 87.60698,115.70117 162.49681,146.17209" />
      <path
         inkscape:connector-curvature="0"
         style="font-style:normal;font-variant:normal;font-weight:normal;font-stretch:normal;letter-spacing:normal;word-spacing:normal;text-anchor:start;fill:none;stroke:#000000;stroke-width:3.80895686;stroke-linecap:butt;stroke-linejoin:miter;stroke-miterlimit:10.43299961;stroke-dasharray:none;stroke-dashoffset:0;stroke-opacity:1"
         id="path128"
         d="m 294.95559,-535.84797 c 0,0 92.77332,133.36548 186.60639,175.31819" />
      <path
         inkscape:connector-curvature="0"
         style="font-style:normal;font-variant:normal;font-weight:normal;font-stretch:normal;letter-spacing:normal;word-spacing:normal;text-anchor:start;fill:none;stroke:#000000;stroke-width:3.80895686;stroke-linecap:butt;stroke-linejoin:miter;stroke-miterlimit:10.43299961;stroke-dasharray:none;stroke-dashoffset:0;stroke-opacity:1"
         id="path130"
         d="m 272.17071,-493.89525 c 0,0 81.24841,137.33994 186.60639,185.47516" />
      <path
         inkscape:connector-curvature="0"
         style="font-style:normal;font-variant:normal;font-weight:normal;font-stretch:normal;letter-spacing:normal;word-spacing:normal;text-anchor:start;fill:none;stroke:#000000;stroke-width:3.80895686;stroke-linecap:butt;stroke-linejoin:miter;stroke-miterlimit:10.43299961;stroke-dasharray:none;stroke-dashoffset:0;stroke-opacity:1"
         id="path132"
         d="m 261.9705,-436.48627 c 0,0 76.2587,147.49691 171.46063,151.02977" />
      <path
         inkscape:connector-curvature="0"
         style="font-style:normal;font-variant:normal;font-weight:normal;font-stretch:normal;letter-spacing:normal;word-spacing:normal;text-anchor:start;fill:none;stroke:#000000;stroke-width:3.80895686;stroke-linecap:butt;stroke-linejoin:miter;stroke-miterlimit:10.43299961;stroke-dasharray:none;stroke-dashoffset:0;stroke-opacity:1"
         id="path134"
         d="m 376.33647,-571.17657 c 0,0 -82.61727,79.93096 -110.56849,92.73758" />
      <path
         inkscape:connector-curvature="0"
         style="font-style:normal;font-variant:normal;font-weight:normal;font-stretch:normal;letter-spacing:normal;word-spacing:normal;text-anchor:start;fill:none;stroke:#000000;stroke-width:3.80895686;stroke-linecap:butt;stroke-linejoin:miter;stroke-miterlimit:10.43299961;stroke-dasharray:none;stroke-dashoffset:0;stroke-opacity:1"
         id="path136"
         d="m 425.83617,-560.13638 c 0,0 -80.01201,117.02599 -162.62928,147.49691" />
      <path
         inkscape:connector-curvature="0"
         style="font-style:normal;font-variant:normal;font-weight:normal;font-stretch:normal;letter-spacing:normal;word-spacing:normal;text-anchor:start;fill:none;stroke:#000000;stroke-width:3.80895686;stroke-linecap:butt;stroke-linejoin:miter;stroke-miterlimit:10.43299961;stroke-dasharray:none;stroke-dashoffset:0;stroke-opacity:1"
         id="path138"
         d="m 456.21601,-533.19832 c 0,0 -77.45092,129.391 -176.45034,172.66854" />
      <path
         inkscape:connector-curvature="0"
         style="font-style:normal;font-variant:normal;font-weight:normal;font-stretch:normal;letter-spacing:normal;word-spacing:normal;text-anchor:start;fill:none;stroke:#000000;stroke-width:3.80895686;stroke-linecap:butt;stroke-linejoin:miter;stroke-miterlimit:10.43299961;stroke-dasharray:none;stroke-dashoffset:0;stroke-opacity:1"
         id="path140"
         d="m 479.13336,-487.71275 c 0,0 -73.65344,127.18297 -172.65286,176.64301" />
      <path
         inkscape:connector-curvature="0"
         style="font-style:normal;font-variant:normal;font-weight:normal;font-stretch:normal;letter-spacing:normal;word-spacing:normal;text-anchor:start;fill:none;stroke:#000000;stroke-width:3.80895686;stroke-linecap:butt;stroke-linejoin:miter;stroke-miterlimit:10.43299961;stroke-dasharray:none;stroke-dashoffset:0;stroke-opacity:1"
         id="path142"
         d="m 489.33357,-430.30377 c 0,0 -68.66373,131.15744 -158.69933,144.84727" />
      <path
         inkscape:connector-curvature="0"
         style="font-style:normal;font-variant:normal;font-weight:normal;font-stretch:normal;letter-spacing:normal;word-spacing:normal;text-anchor:start;fill:none;stroke:#000000;stroke-width:3.80895686;stroke-linecap:butt;stroke-linejoin:miter;stroke-miterlimit:10.43299961;stroke-dasharray:none;stroke-dashoffset:0;stroke-opacity:1"
         id="path144"
         d="m 344.4553,-523.04135 0,0 0,0 -0.0442,0 0,0 0,0 -0.0442,0.44161 -0.0442,0 -0.0442,0.4416 -0.0442,0 -0.0883,0.44161 -0.0883,0.44161 -0.0883,0.44161 -0.13247,0.44161 -0.13247,0.4416 -0.13247,0.44161 -0.17662,0.44161 -0.17663,0.44161 -0.17663,0.4416 -0.22078,0.88322 -0.22078,0.44161 -0.26495,0.4416 -0.26494,0.44161 -0.30909,0.88322 -0.3091,0.4416 -0.35325,0.44161 -0.35326,0.88322 -0.39741,0.4416 -0.44157,0.44161 -0.44156,0.88322 -0.44157,0.4416 -0.52988,0.44161 -0.52988,0.44161 -0.52988,0.44161 -0.57404,0.88321 c -3.79748,2.20804 3.79748,8.39054 6.35857,13.68983" />
      <path
         inkscape:connector-curvature="0"
         style="font-style:normal;font-variant:normal;font-weight:normal;font-stretch:normal;letter-spacing:normal;word-spacing:normal;text-anchor:start;fill:none;stroke:#000000;stroke-width:3.80895686;stroke-linecap:butt;stroke-linejoin:miter;stroke-miterlimit:10.43299961;stroke-dasharray:none;stroke-dashoffset:0;stroke-opacity:1"
         id="path146"
         d="m 315.26769,-493.89525 0,0 0,0 0,0 0,0 0,0 0,0 -0.0442,0.4416 0,0 -0.0442,0 -0.0442,0.44161 -0.0883,0.44161 -0.0883,0.44161 -0.0883,0.4416 -0.0883,0.44161 -0.13247,0.44161 -0.13247,0.44161 -0.17663,0.4416 -0.17663,0.44161 -0.22078,0.44161 -0.22078,0.88321 -0.22079,0.44161 -0.26494,0.44161 -0.3091,0.44161 -0.30909,0.88321 -0.35326,0.44161 -0.35325,0.44161 -0.39741,0.88321 -0.44157,0.44161 -0.48572,0.44161 -0.48573,0.44161 -0.48572,0.88321 -0.57404,0.44161 -0.57404,0.44161 -0.61819,0.4416 -0.35325,0 -0.3091,0.44161 -0.35326,0 -0.35325,0.44161 c -3.79748,3.53286 5.03387,8.83215 7.59496,15.01465" />
      <path
         inkscape:connector-curvature="0"
         style="font-style:normal;font-variant:normal;font-weight:normal;font-stretch:normal;letter-spacing:normal;word-spacing:normal;text-anchor:start;fill:none;stroke:#000000;stroke-width:3.80895686;stroke-linecap:butt;stroke-linejoin:miter;stroke-miterlimit:10.43299961;stroke-dasharray:none;stroke-dashoffset:0;stroke-opacity:1"
         id="path148"
         d="m 292.52697,-525.691 0,0 0,0 0,0 -0.0442,0 0,0.44161 0,0 -0.0441,0 -0.0442,0.44161 -0.0442,0 -0.0883,0.44161 -0.0883,0.4416 -0.0883,0.44161 -0.13247,0.44161 -0.13247,0.44161 -0.13247,0.4416 -0.17663,0.44161 -0.17662,0.44161 -0.22079,0.88322 -0.22078,0.4416 -0.26494,0.44161 -0.26494,0.88322 -0.3091,0.4416 -0.30909,0.88322 -0.35326,0.44161 -0.39741,0.4416 -0.39741,0.88322 -0.44157,0.44161 -0.48572,0.88321 -0.48573,0.44161 -0.52988,0.44161 -0.52988,0.88321 -0.61819,0.44161 -0.6182,0.44161 -0.66235,0.4416 -0.66235,0.44161 c -3.79748,2.64965 5.16634,7.94894 7.59496,14.57305" />
      <path
         inkscape:connector-curvature="0"
         style="font-style:normal;font-variant:normal;font-weight:normal;font-stretch:normal;letter-spacing:normal;word-spacing:normal;text-anchor:start;fill:none;stroke:#000000;stroke-width:3.80895686;stroke-linecap:butt;stroke-linejoin:miter;stroke-miterlimit:10.43299961;stroke-dasharray:none;stroke-dashoffset:0;stroke-opacity:1"
         id="path150"
         d="m 320.47819,-553.51227 0,0 -0.0442,0 0,0 0,0 -0.0442,0 -0.0442,0.44161 -0.0883,0 -0.0883,0.44161 -0.0883,0 -0.13247,0.4416 -0.13247,0.44161 -0.13247,0.44161 -0.17663,0.44161 -0.22078,0.4416 -0.17663,0.44161 -0.22079,0.44161 -0.26494,0.44161 -0.26494,0.4416 -0.26494,0.44161 -0.30909,0.88322 -0.3091,0.4416 -0.35325,0.44161 -0.35326,0.88322 -0.35325,0.4416 -0.39741,0.44161 -0.44157,0.88322 -0.44157,0.4416 -0.44157,0.44161 -0.48572,0.44161 -0.48572,0.88321 -0.52988,0.44161 -0.52989,0.44161 -0.57403,0.44161 -0.57404,0.4416 c -3.79748,2.64965 5.16634,9.27376 6.35857,14.13144" />
      <path
         inkscape:connector-curvature="0"
         style="font-style:normal;font-variant:normal;font-weight:normal;font-stretch:normal;letter-spacing:normal;word-spacing:normal;text-anchor:start;fill:none;stroke:#000000;stroke-width:3.80895686;stroke-linecap:butt;stroke-linejoin:miter;stroke-miterlimit:10.43299961;stroke-dasharray:none;stroke-dashoffset:0;stroke-opacity:1"
         id="path152"
         d="m 352.18273,-571.17657 0,0 -0.0442,0 -0.0442,0 -0.0883,0 -0.0883,0 -0.0883,0 -0.17662,0 -0.13247,0.44161 -0.17663,0 -0.22078,0 -0.22079,0 -0.22078,0.4416 -0.26494,0 -0.3091,0.44161 -0.26494,0 -0.35325,0.44161 -0.3091,0 -0.35325,0.44161 -0.39741,0 -0.39742,0.4416 -0.39741,0.44161 -0.44156,0.44161 -0.44157,0 -0.44157,0.44161 -0.48572,0.4416 -0.48573,0.44161 -0.52988,0.44161 -0.52988,0.44161 -0.52988,0.4416 -0.57404,0.44161 -0.57403,0.44161 -0.57404,0.44161 c -3.79748,2.64964 4.98971,7.50733 6.35857,13.68983" />
      <path
         inkscape:connector-curvature="0"
         style="font-style:normal;font-variant:normal;font-weight:normal;font-stretch:normal;letter-spacing:normal;word-spacing:normal;text-anchor:start;fill:none;stroke:#000000;stroke-width:3.80895686;stroke-linecap:butt;stroke-linejoin:miter;stroke-miterlimit:10.43299961;stroke-dasharray:none;stroke-dashoffset:0;stroke-opacity:1"
         id="path154"
         d="m 382.56257,-554.83709 0,0 0,0 0,0 -0.0442,0 0,0 -0.0442,0.44161 0,0 -0.0442,0 -0.0442,0.4416 -0.0883,0 -0.0883,0.44161 -0.13247,0.44161 -0.13247,0.44161 -0.13247,0.4416 -0.17662,0.44161 -0.17663,0.44161 -0.22079,0.44161 -0.17662,0.4416 -0.26494,0.44161 -0.26494,0.44161 -0.26494,0.88321 -0.26494,0.44161 -0.3091,0.44161 -0.35326,0.88321 -0.35325,0.44161 -0.35325,0.44161 -0.39741,0.88321 -0.39741,0.44161 -0.44157,0.44161 -0.44157,0.44161 -0.48572,0.88321 -0.48573,0.44161 -0.52988,0.44161 -0.52988,0.4416 -0.57404,0.44161 -0.57403,0.44161 c -3.79748,3.53286 4.98971,8.83215 6.35857,15.01465" />
      <path
         inkscape:connector-curvature="0"
         style="font-style:normal;font-variant:normal;font-weight:normal;font-stretch:normal;letter-spacing:normal;word-spacing:normal;text-anchor:start;fill:none;stroke:#000000;stroke-width:3.80895686;stroke-linecap:butt;stroke-linejoin:miter;stroke-miterlimit:10.43299961;stroke-dasharray:none;stroke-dashoffset:0;stroke-opacity:1"
         id="path156"
         d="m 419.4776,-521.71653 0,0 0,0 -0.0442,0 0,0 0,0 -0.0442,0 0,0 -0.0442,0.44161 -0.0883,0 -0.0883,0.44161 -0.0883,0.44161 -0.13247,0 -0.13247,0.4416 -0.13247,0.44161 -0.17663,0.44161 -0.17662,0.88321 -0.22079,0.44161 -0.22078,0.44161 -0.26494,0.44161 -0.26494,0.88321 -0.26494,0.44161 -0.3091,0.44161 -0.3091,0.88321 -0.35325,0.44161 -0.35325,0.88321 -0.35326,0.44161 -0.39741,0.88322 -0.44157,0.4416 -0.44156,0.44161 -0.44157,0.88322 -0.48572,0.4416 -0.48573,0.88322 -0.52988,0.44161 -0.52988,0.4416 -0.57404,0.44161 -0.57404,0.44161 c -3.79748,2.64964 5.16634,7.94893 6.35858,14.13144" />
      <path
         inkscape:connector-curvature="0"
         style="font-style:normal;font-variant:normal;font-weight:normal;font-stretch:normal;letter-spacing:normal;word-spacing:normal;text-anchor:start;fill:none;stroke:#000000;stroke-width:3.80895686;stroke-linecap:butt;stroke-linejoin:miter;stroke-miterlimit:10.43299961;stroke-dasharray:none;stroke-dashoffset:0;stroke-opacity:1"
         id="path158"
         d="m 452.41853,-491.24561 0,0 0,0 0,0 0,0 -0.0442,0 0,0 -0.0442,0.44161 -0.0442,0 -0.0442,0.44161 -0.0442,0.4416 -0.0883,0.44161 -0.0883,0 -0.13247,0.44161 -0.13247,0.88321 -0.13247,0.44161 -0.13247,0.44161 -0.22078,0.44161 -0.17663,0.4416 -0.22078,0.88322 -0.26494,0.44161 -0.26494,0.4416 -0.3091,0.88322 -0.3091,0.44161 -0.35325,0.88321 -0.35326,0.44161 -0.39741,0.88322 -0.44156,0.4416 -0.44157,0.44161 -0.48573,0.88322 -0.52988,0.4416 -0.52988,0.44161 -0.61819,0.88322 -0.6182,0.4416 -0.66235,0.44161 -0.66235,0.44161 c -3.79748,2.64964 4.98971,7.94893 7.59496,14.13144" />
      <path
         inkscape:connector-curvature="0"
         style="font-style:normal;font-variant:normal;font-weight:normal;font-stretch:normal;letter-spacing:normal;word-spacing:normal;text-anchor:start;fill:none;stroke:#000000;stroke-width:3.80895686;stroke-linecap:butt;stroke-linejoin:miter;stroke-miterlimit:10.43299961;stroke-dasharray:none;stroke-dashoffset:0;stroke-opacity:1"
         id="path160"
         d="m 382.56257,-483.73828 0,0 0,0 0,0 -0.0442,0 0,0 -0.0442,0.44161 -0.0442,0 -0.0442,0 -0.0883,0.44161 -0.0883,0.4416 -0.13247,0 -0.13247,0.44161 -0.13247,0.44161 -0.17662,0.44161 -0.17663,0.4416 -0.22079,0.44161 -0.17662,0.44161 -0.26494,0.44161 -0.26494,0.88321 -0.26494,0.44161 -0.26494,0.44161 -0.3091,0.4416 -0.35326,0.88322 -0.35325,0.44161 -0.35325,0.4416 -0.39741,0.88322 -0.39741,0.44161 -0.44157,0.4416 -0.44157,0.44161 -0.48572,0.88322 -0.48573,0.4416 -0.52988,0.44161 -0.52988,0.44161 -0.57404,0.88321 -0.57403,0.44161 c -3.79748,2.20804 4.98971,8.83215 6.35857,13.68983" />
      <path
         inkscape:connector-curvature="0"
         style="font-style:normal;font-variant:normal;font-weight:normal;font-stretch:normal;letter-spacing:normal;word-spacing:normal;text-anchor:start;fill:none;stroke:#000000;stroke-width:3.80895686;stroke-linecap:butt;stroke-linejoin:miter;stroke-miterlimit:10.43299961;stroke-dasharray:none;stroke-dashoffset:0;stroke-opacity:1"
         id="path162"
         d="m 349.62164,-449.29289 0,0 0,0 0,0 -0.0442,0 0,0 0,0 -0.0442,0.4416 -0.0442,0 -0.0442,0.44161 -0.0442,0.44161 -0.0883,0 -0.0883,0.44161 -0.13247,0.44161 -0.13247,0.4416 -0.13247,0.88322 -0.17663,0.44161 -0.17663,0.4416 -0.22078,0.44161 -0.22079,0.88322 -0.26494,0.4416 -0.26494,0.44161 -0.26494,0.88322 -0.35325,0.4416 -0.35325,0.88322 -0.35326,0.44161 -0.44157,0.88321 -0.39741,0.44161 -0.48572,0.88321 -0.48572,0.44161 -0.52989,0.44161 -0.57403,0.88321 -0.6182,0.44161 -0.61819,0.44161 -0.66235,0.44161 -0.70651,0.4416 c -3.79748,2.64965 5.16634,7.94894 7.72743,14.13144" />
      <path
         inkscape:connector-curvature="0"
         style="font-style:normal;font-variant:normal;font-weight:normal;font-stretch:normal;letter-spacing:normal;word-spacing:normal;text-anchor:start;fill:none;stroke:#000000;stroke-width:3.80895686;stroke-linecap:butt;stroke-linejoin:miter;stroke-miterlimit:10.43299961;stroke-dasharray:none;stroke-dashoffset:0;stroke-opacity:1"
         id="path164"
         d="m 382.56257,-413.52268 0,0 0,0 0,0 0,0 -0.0442,0 0,0 0,0 -0.0442,0.4416 0,0 0,0 -0.0883,0.44161 -0.0442,0 -0.0883,0.44161 -0.0883,0.44161 -0.0883,0.4416 -0.0883,0.44161 -0.13247,0.44161 -0.17663,0.44161 -0.13247,0.88321 -0.17663,0.44161 -0.22078,0.44161 -0.22078,0.44161 -0.22079,0.88321 -0.26494,0.44161 -0.26494,0.44161 -0.30909,0.88321 -0.3091,0.44161 -0.35326,0.44161 -0.35325,0.4416 -0.39741,0.88322 -0.39741,0.44161 -0.44157,0.4416 -0.48572,0.44161 -0.48573,0.44161 -0.52988,0.44161 -0.57404,0.4416 -0.57403,0.44161 c -3.79748,3.97447 3.79748,8.83215 6.40272,15.45626" />
      <path
         inkscape:connector-curvature="0"
         style="font-style:normal;font-variant:normal;font-weight:normal;font-stretch:normal;letter-spacing:normal;word-spacing:normal;text-anchor:start;fill:none;stroke:#000000;stroke-width:3.80895686;stroke-linecap:butt;stroke-linejoin:miter;stroke-miterlimit:10.43299961;stroke-dasharray:none;stroke-dashoffset:0;stroke-opacity:1"
         id="path166"
         d="m 418.10874,-453.26736 0,0 0,0 -0.0442,0 0,0 0,0.44161 0,0 -0.0442,0 -0.0442,0.4416 -0.0442,0 -0.0883,0.44161 -0.0442,0.44161 -0.13247,0.44161 -0.0883,0.4416 -0.13247,0.44161 -0.13247,0.44161 -0.17662,0.44161 -0.17663,0.4416 -0.22078,0.88322 -0.22079,0.44161 -0.22078,0.44161 -0.26494,0.88321 -0.3091,0.44161 -0.3091,0.88321 -0.35325,0.44161 -0.35325,0.88322 -0.39742,0.4416 -0.44156,0.44161 -0.44157,0.88322 -0.48572,0.4416 -0.52989,0.44161 -0.57403,0.88322 -0.57404,0.4416 -0.6182,0.44161 -0.66235,0.44161 -0.7065,0.44161 c -3.79748,2.64964 5.03386,7.94893 7.59496,14.13144" />
      <path
         inkscape:connector-curvature="0"
         style="font-style:normal;font-variant:normal;font-weight:normal;font-stretch:normal;letter-spacing:normal;word-spacing:normal;text-anchor:start;fill:none;stroke:#000000;stroke-width:3.80895686;stroke-linecap:butt;stroke-linejoin:miter;stroke-miterlimit:10.43299961;stroke-dasharray:none;stroke-dashoffset:0;stroke-opacity:1"
         id="path168"
         d="m 453.61076,-424.12126 0,0.4416 0,0 0,0 0,0 -0.0442,0 -0.0442,0 -0.0883,0.44161 -0.0883,0 -0.0883,0.44161 -0.13247,0.44161 -0.13247,0.4416 -0.13247,0 -0.17663,0.44161 -0.17662,0.44161 -0.17663,0.88321 -0.22078,0.44161 -0.22079,0.44161 -0.26494,0.44161 -0.26494,0.4416 -0.3091,0.44161 -0.30909,0.88322 -0.3091,0.4416 -0.35325,0.44161 -0.39742,0.88322 -0.39741,0.4416 -0.39741,0.44161 -0.44156,0.88322 -0.44157,0.4416 -0.48573,0.44161 -0.48572,0.44161 -0.52988,0.88321 -0.52988,0.44161 -0.57404,0.44161 -0.57404,0.44161 c -3.79748,2.64964 4.98971,8.83215 6.40273,14.13144" />
      <path
         inkscape:connector-curvature="0"
         style="font-style:normal;font-variant:normal;font-weight:normal;font-stretch:normal;letter-spacing:normal;word-spacing:normal;text-anchor:start;fill:none;stroke:#000000;stroke-width:3.80895686;stroke-linecap:butt;stroke-linejoin:miter;stroke-miterlimit:10.43299961;stroke-dasharray:none;stroke-dashoffset:0;stroke-opacity:1"
         id="path170"
         d="m 484.16723,-398.50803 0,0 0,0 -0.0442,0 0,0 0,0 -0.0442,0.44161 0,0 -0.0442,0 -0.0442,0 -0.0441,0.44161 -0.0883,0 -0.0883,0.44161 -0.13247,0.4416 -0.13247,0.44161 -0.13247,0.44161 -0.17663,0.44161 -0.17663,0.4416 -0.22078,0.44161 -0.22078,0.44161 -0.22079,0.44161 -0.26494,0.88321 -0.26494,0.44161 -0.30909,0.44161 -0.3091,0.4416 -0.35326,0.88322 -0.35325,0.44161 -0.35325,0.4416 -0.39741,0.88322 -0.39741,0.44161 -0.44157,0.4416 -0.44157,0.44161 -0.48572,0.88322 -0.48573,0.4416 -0.48572,0.44161 -0.52988,0.44161 -0.57404,0.44161 -0.57404,0.4416 c -3.75332,3.53286 5.03387,8.83215 6.2261,15.01466" />
      <path
         inkscape:connector-curvature="0"
         style="font-style:normal;font-variant:normal;font-weight:normal;font-stretch:normal;letter-spacing:normal;word-spacing:normal;text-anchor:start;fill:none;stroke:#000000;stroke-width:3.80895686;stroke-linecap:butt;stroke-linejoin:miter;stroke-miterlimit:10.43299961;stroke-dasharray:none;stroke-dashoffset:0;stroke-opacity:1"
         id="path172"
         d="m 480.36975,-464.74916 0,0 0,0 -0.0442,0 0,0.44161 0,0 -0.0442,0 -0.0442,0 -0.0883,0.44161 -0.0883,0 -0.0883,0.44161 -0.13247,0.4416 -0.13247,0 -0.13247,0.44161 -0.17663,0.44161 -0.17662,0.44161 -0.22079,0.4416 -0.22078,0.44161 -0.22079,0.88322 -0.26494,0.4416 -0.26494,0.44161 -0.30909,0.44161 -0.3091,0.88321 -0.35326,0.44161 -0.35325,0.44161 -0.35325,0.44161 -0.39741,0.88321 -0.39741,0.44161 -0.44157,0.44161 -0.44157,0.88321 -0.48572,0.44161 -0.48573,0.44161 -0.48572,0.88321 -0.52988,0.44161 -0.57404,0.44161 -0.52988,0.4416 c -3.97411,2.64965 4.98971,8.83216 6.18194,14.13145" />
      <path
         inkscape:connector-curvature="0"
         style="font-style:normal;font-variant:normal;font-weight:normal;font-stretch:normal;letter-spacing:normal;word-spacing:normal;text-anchor:start;fill:none;stroke:#000000;stroke-width:3.80895686;stroke-linecap:butt;stroke-linejoin:miter;stroke-miterlimit:10.43299961;stroke-dasharray:none;stroke-dashoffset:0;stroke-opacity:1"
         id="path174"
         d="m 420.66984,-379.5189 0,0 0,0 0,0 0,0 -0.0442,0 0,0 -0.0442,0.4416 -0.0442,0 0,0 -0.0442,0 -0.0883,0.44161 -0.0883,0.44161 -0.13247,0.44161 -0.13247,0.4416 -0.17663,0.44161 -0.17662,0.44161 -0.17663,0.44161 -0.17663,0.4416 -0.22078,0.44161 -0.26494,0.44161 -0.26494,0.88321 -0.26494,0.44161 -0.3091,0.44161 -0.3091,0.88322 -0.30909,0.4416 -0.35326,0.44161 -0.39741,0.88322 -0.35325,0.4416 -0.44157,0.44161 -0.39741,0.44161 -0.44157,0.88321 -0.48572,0.44161 -0.48573,0.44161 -0.52988,0.44161 -0.52988,0.4416 -0.52988,0.44161 -0.57404,0.44161 c -3.9741,3.97447 4.98972,8.83215 6.2261,15.01465" />
      <path
         inkscape:connector-curvature="0"
         style="font-style:normal;font-variant:normal;font-weight:normal;font-stretch:normal;letter-spacing:normal;word-spacing:normal;text-anchor:start;fill:none;stroke:#000000;stroke-width:3.80895686;stroke-linecap:butt;stroke-linejoin:miter;stroke-miterlimit:10.43299961;stroke-dasharray:none;stroke-dashoffset:0;stroke-opacity:1"
         id="path176"
         d="m 383.93143,-345.07352 0,0 0,0 0,0 0,0 -0.0442,0 0,0 0,0 -0.0442,0.44161 -0.0442,0 -0.0442,0.44161 -0.0883,0.44161 -0.0442,0 -0.13247,0.4416 -0.0883,0.44161 -0.13247,0.44161 -0.17662,0.44161 -0.17663,0.88321 -0.17663,0.44161 -0.22078,0.44161 -0.22078,0.4416 -0.26494,0.88322 -0.26494,0.44161 -0.3091,0.4416 -0.3091,0.88322 -0.35325,0.44161 -0.39741,0.44161 -0.39741,0.88321 -0.44157,0.44161 -0.44157,0.44161 -0.48572,0.4416 -0.52988,0.88322 -0.57404,0.44161 -0.57404,0.4416 -0.61819,0.44161 -0.66235,0.44161 -0.35326,0 -0.35325,0.44161 c -3.79748,3.53286 5.16634,8.83215 7.59496,15.01465" />
      <path
         inkscape:connector-curvature="0"
         style="font-style:normal;font-variant:normal;font-weight:normal;font-stretch:normal;letter-spacing:normal;word-spacing:normal;text-anchor:start;fill:none;stroke:#000000;stroke-width:3.80895686;stroke-linecap:butt;stroke-linejoin:miter;stroke-miterlimit:10.43299961;stroke-dasharray:none;stroke-dashoffset:0;stroke-opacity:1"
         id="path178"
         d="m 460.01349,-353.90567 0,0 0,0 0,0 -0.0442,0 0,0 0,0 -0.0442,0.44161 -0.0442,0 -0.0442,0.44161 -0.0442,0.44161 -0.0883,0 -0.0883,0.4416 -0.13247,0.44161 -0.13247,0.44161 -0.13247,0.88321 -0.17663,0.44161 -0.17662,0.44161 -0.17663,0.44161 -0.22078,0.88321 -0.26494,0.44161 -0.26494,0.44161 -0.3091,0.88321 -0.3091,0.44161 -0.35325,0.88321 -0.35326,0.44161 -0.39741,0.88322 -0.44156,0.4416 -0.44157,0.44161 -0.48573,0.88322 -0.52988,0.4416 -0.57404,0.44161 -0.57403,0.88322 -0.6182,0.4416 -0.66235,0.44161 -0.66235,0.44161 c -3.79748,2.64965 4.98971,7.94894 7.5508,14.13144" />
      <path
         inkscape:connector-curvature="0"
         style="font-style:normal;font-variant:normal;font-weight:normal;font-stretch:normal;letter-spacing:normal;word-spacing:normal;text-anchor:start;fill:none;stroke:#000000;stroke-width:3.80895686;stroke-linecap:butt;stroke-linejoin:miter;stroke-miterlimit:10.43299961;stroke-dasharray:none;stroke-dashoffset:0;stroke-opacity:1"
         id="path180"
         d="m 424.46732,-319.46028 0,0 0,0 0,0 0,0 0,0 -0.0442,0 0,0 -0.0442,0.44161 -0.0442,0 -0.0883,0.44161 -0.0442,0.4416 -0.0883,0.44161 -0.13247,0 -0.0883,0.44161 -0.13247,0.44161 -0.13247,0.4416 -0.17663,0.88322 -0.17663,0.44161 -0.22078,0.4416 -0.22078,0.44161 -0.22079,0.44161 -0.26494,0.88321 -0.26494,0.44161 -0.3091,0.44161 -0.30909,0.88321 -0.35326,0.44161 -0.35325,0.44161 -0.39741,0.88321 -0.39741,0.44161 -0.44157,0.44161 -0.48572,0.44161 -0.48573,0.88321 -0.52988,0.44161 -0.57404,0.44161 -0.57403,0.4416 c -3.79748,2.64965 3.79748,8.83216 6.40272,14.13145" />
      <path
         inkscape:connector-curvature="0"
         style="font-style:normal;font-variant:normal;font-weight:normal;font-stretch:normal;letter-spacing:normal;word-spacing:normal;text-anchor:start;fill:none;stroke:#000000;stroke-width:3.80895686;stroke-linecap:butt;stroke-linejoin:miter;stroke-miterlimit:10.43299961;stroke-dasharray:none;stroke-dashoffset:0;stroke-opacity:1"
         id="path182"
         d="m 344.4553,-323.43475 0,0 -0.0442,0 0,0 0,0 0,0 -0.0442,0 0,0.44161 -0.0442,0 -0.0883,0 -0.0442,0.44161 -0.13247,0.44161 -0.0883,0.4416 -0.13247,0.44161 -0.13247,0.44161 -0.17662,0.44161 -0.17663,0.4416 -0.22078,0.44161 -0.22079,0.44161 -0.22078,0.44161 -0.26494,0.88321 -0.26494,0.44161 -0.3091,0.88321 -0.3091,0.44161 -0.30909,0.44161 -0.35326,0.88321 -0.35325,0.44161 -0.39741,0.88322 -0.44157,0.4416 -0.39741,0.44161 -0.48572,0.88322 -0.44157,0.4416 -0.52988,0.44161 -0.48573,0.88322 -0.57403,0.4416 -0.52989,0.44161 -0.61819,0.44161 c -3.79748,2.64964 5.03387,7.50733 6.40273,14.13144" />
      <path
         inkscape:connector-curvature="0"
         style="font-style:normal;font-variant:normal;font-weight:normal;font-stretch:normal;letter-spacing:normal;word-spacing:normal;text-anchor:start;fill:none;stroke:#000000;stroke-width:3.80895686;stroke-linecap:butt;stroke-linejoin:miter;stroke-miterlimit:10.43299961;stroke-dasharray:none;stroke-dashoffset:0;stroke-opacity:1"
         id="path184"
         d="m 310.27798,-353.90567 0,0 0,0 0,0 0,0 -0.0442,0 -0.0883,0.44161 -0.0442,0 -0.0883,0.44161 -0.13247,0 -0.0883,0.44161 -0.13247,0.4416 -0.17663,0.44161 -0.17663,0.44161 -0.17663,0.44161 -0.22078,0.4416 -0.22078,0.44161 -0.22079,0.44161 -0.26494,0.44161 -0.30909,0.4416 -0.26494,0.88322 -0.35326,0.44161 -0.3091,0.4416 -0.35325,0.88322 -0.39741,0.44161 -0.39741,0.4416 -0.39741,0.88322 -0.44157,0.44161 -0.48572,0.4416 -0.44157,0.44161 -0.52988,0.88322 -0.52988,0.4416 -0.52988,0.44161 -0.57404,0.44161 -0.57404,0.44161 c -3.79748,2.64964 5.16634,9.27376 6.40273,14.13144" />
      <path
         inkscape:connector-curvature="0"
         style="font-style:normal;font-variant:normal;font-weight:normal;font-stretch:normal;letter-spacing:normal;word-spacing:normal;text-anchor:start;fill:none;stroke:#000000;stroke-width:3.80895686;stroke-linecap:butt;stroke-linejoin:miter;stroke-miterlimit:10.43299961;stroke-dasharray:none;stroke-dashoffset:0;stroke-opacity:1"
         id="path186"
         d="m 280.9579,-403.80732 0,0 0,0 0,0 0,0 -0.0442,0.44161 0,0 -0.0442,0.44161 -0.0883,0 -0.0442,0.44161 -0.0883,0.4416 -0.0883,0 -0.0883,0.44161 -0.13247,0.44161 -0.17663,0.44161 -0.13247,0.4416 -0.17663,0.44161 -0.22078,0.88322 -0.22078,0.4416 -0.26494,0.44161 -0.26494,0.44161 -0.26494,0.88321 -0.35326,0.44161 -0.30909,0.44161 -0.39742,0.88321 -0.39741,0.44161 -0.39741,0.44161 -0.48572,0.88321 -0.48573,0.44161 -0.52988,0.44161 -0.52988,0.88321 -0.57403,0.44161 -0.66236,0.44161 -0.61819,0.44161 -0.70651,0.4416 c -3.79748,2.64965 4.98971,8.83215 7.59496,14.13144" />
      <path
         inkscape:connector-curvature="0"
         style="font-style:normal;font-variant:normal;font-weight:normal;font-stretch:normal;letter-spacing:normal;word-spacing:normal;text-anchor:start;fill:none;stroke:#000000;stroke-width:3.80895686;stroke-linecap:butt;stroke-linejoin:miter;stroke-miterlimit:10.43299961;stroke-dasharray:none;stroke-dashoffset:0;stroke-opacity:1"
         id="path188"
         d="m 311.51437,-420.1468 -0.0442,0 0,0 0,0 0,0 0,0.44161 -0.0442,0 -0.0442,0 -0.0442,0.44161 -0.0883,0.44161 -0.0442,0 -0.13247,0.4416 -0.0883,0.44161 -0.13247,0.44161 -0.13247,0.44161 -0.17663,0.4416 -0.17663,0.44161 -0.22078,0.44161 -0.22078,0.88321 -0.22079,0.44161 -0.26494,0.44161 -0.3091,0.44161 -0.30909,0.88321 -0.35326,0.44161 -0.35325,0.44161 -0.39741,0.88321 -0.44157,0.44161 -0.44157,0.44161 -0.48572,0.44161 -0.52988,0.88321 -0.57404,0.44161 -0.57404,0.44161 -0.61819,0.4416 -0.66235,0.88322 -0.70651,0.44161 c -3.97411,2.20803 5.03387,8.83215 7.59496,13.68983" />
      <path
         inkscape:connector-curvature="0"
         style="font-style:normal;font-variant:normal;font-weight:normal;font-stretch:normal;letter-spacing:normal;word-spacing:normal;text-anchor:start;fill:none;stroke:#000000;stroke-width:3.80895686;stroke-linecap:butt;stroke-linejoin:miter;stroke-miterlimit:10.43299961;stroke-dasharray:none;stroke-dashoffset:0;stroke-opacity:1"
         id="path190"
         d="m 344.4553,-382.16855 0,0.44161 0,0 -0.0442,0 0,0 0,0 0,0 -0.0442,0 -0.0442,0.44161 -0.0442,0 -0.0442,0.4416 -0.0883,0.44161 -0.0883,0.44161 -0.0883,0 -0.13247,0.44161 -0.13247,0.4416 -0.13247,0.44161 -0.17662,0.88322 -0.17663,0.4416 -0.17663,0.44161 -0.22078,0.44161 -0.22078,0.44161 -0.26495,0.88321 -0.26494,0.44161 -0.30909,0.44161 -0.3091,0.88321 -0.35325,0.44161 -0.35326,0.44161 -0.39741,0.88321 -0.44157,0.44161 -0.44156,0.44161 -0.44157,0.44161 -0.52988,0.88321 -0.52988,0.44161 -0.52988,0.44161 -0.57404,0.4416 c -3.79748,2.64965 3.79748,8.83215 6.35857,14.13144" />
      <path
         inkscape:connector-curvature="0"
         style="font-style:normal;font-variant:normal;font-weight:normal;font-stretch:normal;letter-spacing:normal;word-spacing:normal;text-anchor:start;fill:none;stroke:#000000;stroke-width:3.80895686;stroke-linecap:butt;stroke-linejoin:miter;stroke-miterlimit:10.43299961;stroke-dasharray:none;stroke-dashoffset:0;stroke-opacity:1"
         id="path192"
         d="m 280.9579,-463.42433 0,0 0,0 0,0 0,0 -0.0442,0.4416 0,0 -0.0442,0 -0.0883,0.44161 -0.0442,0.44161 -0.0883,0 -0.0883,0.44161 -0.0883,0.4416 -0.13247,0.44161 -0.17663,0.44161 -0.13247,0.44161 -0.17663,0.4416 -0.22078,0.44161 -0.22078,0.88322 -0.26494,0.4416 -0.26494,0.44161 -0.26494,0.44161 -0.35326,0.88321 -0.30909,0.44161 -0.39742,0.44161 -0.39741,0.88321 -0.39741,0.44161 -0.48572,0.44161 -0.48573,0.88321 -0.52988,0.44161 -0.52988,0.44161 -0.57403,0.44161 -0.66236,0.4416 -0.61819,0.88322 -0.70651,0.44161 c -3.79748,3.53286 4.98971,8.83215 7.59496,15.01465" />
      <path
         inkscape:connector-curvature="0"
         style="font-style:normal;font-variant:normal;font-weight:normal;font-stretch:normal;letter-spacing:normal;word-spacing:normal;text-anchor:start;fill:#3d995c;fill-opacity:1;fill-rule:evenodd;stroke:#3d995c;stroke-width:0;stroke-linecap:butt;stroke-linejoin:miter;stroke-miterlimit:10.43299961;stroke-dasharray:none;stroke-dashoffset:0;stroke-opacity:1"
         id="path194"
         d="m 128.6613,-364.06264 -10.20021,23.84681 c 0,0 15.36655,-4.85769 27.95122,-11.04019 11.39244,-7.94894 55.90244,-45.92718 55.90244,-45.92718 l -73.65345,33.12056 z" />
      <path
         inkscape:connector-curvature="0"
         style="font-style:normal;font-variant:normal;font-weight:normal;font-stretch:normal;letter-spacing:normal;word-spacing:normal;text-anchor:start;fill:#308a2a;fill-opacity:1;stroke:#000000;stroke-width:7.61782551;stroke-linecap:butt;stroke-linejoin:miter;stroke-miterlimit:10.43299961;stroke-dasharray:none;stroke-dashoffset:0;stroke-opacity:1"
         id="path196"
         d="m 128.6613,-364.06264 -10.20021,23.84681 c 0,0 15.36655,-4.85769 27.95122,-11.04019 11.39244,-7.94894 55.90244,-45.92718 55.90244,-45.92718 l -73.65345,33.12056 z" />
      <path
         inkscape:connector-curvature="0"
         style="font-style:normal;font-variant:normal;font-weight:normal;font-stretch:normal;letter-spacing:normal;word-spacing:normal;text-anchor:start;fill:#3d995c;fill-opacity:1;fill-rule:evenodd;stroke:#3d995c;stroke-width:0;stroke-linecap:butt;stroke-linejoin:miter;stroke-miterlimit:10.43299961;stroke-dasharray:none;stroke-dashoffset:0;stroke-opacity:1"
         id="path198"
         d="m 235.25568,-402.48249 0,0 0.0441,0 0.0442,0 0.0442,-0.44161 0.0442,-0.44161 0.0883,-0.44161 0.22078,-0.88321 0.22078,-1.32482 0.26494,-1.32483 0.3091,-1.76643 0.3091,-2.20804 0.35325,-2.20803 0.35326,-2.20804 0.35325,-2.64965 0.3091,-2.64964 0.35325,-3.09125 0.3091,-3.09126 0.3091,-3.09125 0.26494,-3.53286 0.22078,-3.53286 0.17663,-3.53286 0.13247,-3.97447 0.0442,-3.53286 0,-3.97447 -0.0442,-3.97446 -0.13247,-3.97447 -0.22079,-4.41608 -0.30909,-3.97446 -0.44157,-3.97447 -0.48573,-4.41608 -0.61819,-3.97446 -0.75066,-4.41608 -0.83898,-3.97447 -1.01561,-3.97447 -1.10392,-4.41607 c 0,0 -31.74869,41.95271 -22.78488,76.3981 0,0 -8.96381,-54.75933 -21.72511,-71.09881 0,0 -4.98971,58.29219 2.56109,75.07328 0,0 -21.54849,-56.08416 -40.53589,-64.91631 0,0 -8.96382,41.95272 20.17963,66.24113 0,0 -54.48942,-22.96359 -69.67934,-14.13144 0,0 18.9874,43.27754 69.67934,14.13144 l -1.19223,0.88322 c 0,0 -63.45324,26.93806 -66.05849,45.92718 0,0 43.27361,10.15697 82.61727,-24.28841 0,0 -61.06878,51.22647 -61.06878,66.24113 0,0 41.94891,-17.66431 50.91273,-31.79575 0,0 26.5382,-31.79574 58.2869,-43.27753 z" />
      <path
         inkscape:connector-curvature="0"
         style="font-style:normal;font-variant:normal;font-weight:normal;font-stretch:normal;letter-spacing:normal;word-spacing:normal;text-anchor:start;fill:#308a2a;fill-opacity:1;stroke:#000000;stroke-width:7.61782551;stroke-linecap:butt;stroke-linejoin:miter;stroke-miterlimit:10.43299961;stroke-dasharray:none;stroke-dashoffset:0;stroke-opacity:1"
         id="path200"
         d="m 235.25568,-402.48249 0,0 0.0441,0 0.0442,0 0.0442,-0.44161 0.0442,-0.44161 0.0883,-0.44161 0.22078,-0.88321 0.22078,-1.32482 0.26494,-1.32483 0.3091,-1.76643 0.3091,-2.20804 0.35325,-2.20803 0.35326,-2.20804 0.35325,-2.64965 0.3091,-2.64964 0.35325,-3.09125 0.3091,-3.09126 0.3091,-3.09125 0.26494,-3.53286 0.22078,-3.53286 0.17663,-3.53286 0.13247,-3.97447 0.0442,-3.53286 0,-3.97447 -0.0442,-3.97446 -0.13247,-3.97447 -0.22079,-4.41608 -0.30909,-3.97446 -0.44157,-3.97447 -0.48573,-4.41608 -0.61819,-3.97446 -0.75066,-4.41608 -0.83898,-3.97447 -1.01561,-3.97447 -1.10392,-4.41607 c 0,0 -31.74869,41.95271 -22.78488,76.3981 0,0 -8.96381,-54.75933 -21.72511,-71.09881 0,0 -4.98971,58.29219 2.56109,75.07328 0,0 -21.54849,-56.08416 -40.53589,-64.91631 0,0 -8.96382,41.95272 20.17963,66.24113 0,0 -54.48942,-22.96359 -69.67934,-14.13144 0,0 18.9874,43.27754 69.67934,14.13144 l -1.19223,0.88322 c 0,0 -63.45324,26.93806 -66.05849,45.92718 0,0 43.27361,10.15697 82.61727,-24.28841 0,0 -61.06878,51.22647 -61.06878,66.24113 0,0 41.94891,-17.66431 50.91273,-31.79575 0,0 26.5382,-31.79574 58.2869,-43.27753 z" />
      <path
         inkscape:connector-curvature="0"
         style="font-style:normal;font-variant:normal;font-weight:normal;font-stretch:normal;letter-spacing:normal;word-spacing:normal;text-anchor:start;fill:#ff6600;fill-opacity:1;fill-rule:evenodd;stroke:#ff6600;stroke-width:0;stroke-linecap:butt;stroke-linejoin:miter;stroke-miterlimit:10.43299961;stroke-dasharray:none;stroke-dashoffset:0;stroke-opacity:1"
         id="path202"
         d="m 419.4776,-236.87967 1.19224,-6.18251 0.7065,-5.74089 0.22079,-6.18251 -0.17663,-6.1825 -0.61819,-6.18251 -1.05977,-6.18251 -1.41301,-6.1825 -1.85459,-6.18251 -2.16368,-6.1825 -2.51693,-6.18251 -2.87019,-6.1825 -3.22344,-6.18251 -3.48838,-6.1825 -3.75333,-6.18251 -4.06242,-5.7409 -4.32736,-5.74089 -4.54814,-5.7409 -4.76893,-5.7409 -4.98971,-5.7409 -5.2105,-5.29929 -5.34296,-5.29929 -5.5196,-5.29929 -5.69622,-4.85768 -5.82869,-4.85769 -5.917,-4.41607 -6.04947,-4.41608 -6.09363,-4.41607 -6.18195,-3.97447 -6.27025,-3.53286 -6.27026,-3.53286 -6.31442,-3.09125 -6.35857,-2.64965 c -50.69194,-21.63877 -90.03559,10.15698 -112.95294,39.30307 -12.58467,16.78109 -15.18992,25.61324 -11.39244,64.91631 5.16634,37.97825 12.7613,55.64255 53.29719,92.73758 40.71251,35.77021 94.0097,41.95272 125.7584,39.30307 31.70454,-2.64964 58.46352,-34.44539 66.05848,-65.79952 z" />
      <path
         inkscape:connector-curvature="0"
         style="font-style:normal;font-variant:normal;font-weight:normal;font-stretch:normal;letter-spacing:normal;word-spacing:normal;text-anchor:start;fill:none;stroke:#000000;stroke-width:7.61782551;stroke-linecap:butt;stroke-linejoin:miter;stroke-miterlimit:10.43299961;stroke-dasharray:none;stroke-dashoffset:0;stroke-opacity:1"
         id="path204"
         d="m 419.4776,-236.87967 1.19224,-6.18251 0.7065,-5.74089 0.22079,-6.18251 -0.17663,-6.1825 -0.61819,-6.18251 -1.05977,-6.18251 -1.41301,-6.1825 -1.85459,-6.18251 -2.16368,-6.1825 -2.51693,-6.18251 -2.87019,-6.1825 -3.22344,-6.18251 -3.48838,-6.1825 -3.75333,-6.18251 -4.06242,-5.7409 -4.32736,-5.74089 -4.54814,-5.7409 -4.76893,-5.7409 -4.98971,-5.7409 -5.2105,-5.29929 -5.34296,-5.29929 -5.5196,-5.29929 -5.69622,-4.85768 -5.82869,-4.85769 -5.917,-4.41607 -6.04947,-4.41608 -6.09363,-4.41607 -6.18195,-3.97447 -6.27025,-3.53286 -6.27026,-3.53286 -6.31442,-3.09125 -6.35857,-2.64965 c -50.69194,-21.63877 -90.03559,10.15698 -112.95294,39.30307 -12.58467,16.78109 -15.18992,25.61324 -11.39244,64.91631 5.16634,37.97825 12.7613,55.64255 53.29719,92.73758 40.71251,35.77021 94.0097,41.95272 125.7584,39.30307 31.70454,-2.64964 58.46352,-34.44539 66.05848,-65.79952 z" />
      <path
         inkscape:connector-curvature="0"
         style="font-style:normal;font-variant:normal;font-weight:normal;font-stretch:normal;letter-spacing:normal;word-spacing:normal;text-anchor:start;fill:none;stroke:#000000;stroke-width:3.80895686;stroke-linecap:butt;stroke-linejoin:miter;stroke-miterlimit:10.43299961;stroke-dasharray:none;stroke-dashoffset:0;stroke-opacity:1"
         id="path206"
         d="m 206.11223,-385.70141 c 0,0 107.96323,-12.80662 115.55819,-7.94893" />
      <path
         inkscape:connector-curvature="0"
         style="font-style:normal;font-variant:normal;font-weight:normal;font-stretch:normal;letter-spacing:normal;word-spacing:normal;text-anchor:start;fill:none;stroke:#000000;stroke-width:3.80895686;stroke-linecap:butt;stroke-linejoin:miter;stroke-miterlimit:10.43299961;stroke-dasharray:none;stroke-dashoffset:0;stroke-opacity:1"
         id="path208"
         d="m 174.36353,-345.07352 c 0,0 129.55588,17.66431 196.8066,-8.83215" />
      <path
         inkscape:connector-curvature="0"
         style="font-style:normal;font-variant:normal;font-weight:normal;font-stretch:normal;letter-spacing:normal;word-spacing:normal;text-anchor:start;fill:none;stroke:#000000;stroke-width:3.80895686;stroke-linecap:butt;stroke-linejoin:miter;stroke-miterlimit:10.43299961;stroke-dasharray:none;stroke-dashoffset:0;stroke-opacity:1"
         id="path210"
         d="m 171.75828,-308.42009 c 0,0 144.92243,26.93806 231.16054,-6.18251" />
      <path
         inkscape:connector-curvature="0"
         style="font-style:normal;font-variant:normal;font-weight:normal;font-stretch:normal;letter-spacing:normal;word-spacing:normal;text-anchor:start;fill:none;stroke:#000000;stroke-width:3.80895686;stroke-linecap:butt;stroke-linejoin:miter;stroke-miterlimit:10.43299961;stroke-dasharray:none;stroke-dashoffset:0;stroke-opacity:1"
         id="path212"
         d="m 184.56374,-266.46738 c 0,0 138.29891,35.77021 236.1061,0" />
      <path
         inkscape:connector-curvature="0"
         style="font-style:normal;font-variant:normal;font-weight:normal;font-stretch:normal;letter-spacing:normal;word-spacing:normal;text-anchor:start;fill:none;stroke:#000000;stroke-width:3.80895686;stroke-linecap:butt;stroke-linejoin:miter;stroke-miterlimit:10.43299961;stroke-dasharray:none;stroke-dashoffset:0;stroke-opacity:1"
         id="path214"
         d="m 213.70719,-224.51466 c 0,0 142.27302,45.92718 205.77041,-12.36501" />
      <path
         inkscape:connector-curvature="0"
         style="font-style:normal;font-variant:normal;font-weight:normal;font-stretch:normal;letter-spacing:normal;word-spacing:normal;text-anchor:start;fill:none;stroke:#000000;stroke-width:3.80895686;stroke-linecap:butt;stroke-linejoin:miter;stroke-miterlimit:10.43299961;stroke-dasharray:none;stroke-dashoffset:0;stroke-opacity:1"
         id="path216"
         d="m 202.31475,-383.49337 c 0,0 -2.60525,104.66098 -12.7613,129.83261" />
      <path
         inkscape:connector-curvature="0"
         style="font-style:normal;font-variant:normal;font-weight:normal;font-stretch:normal;letter-spacing:normal;word-spacing:normal;text-anchor:start;fill:none;stroke:#000000;stroke-width:3.80895686;stroke-linecap:butt;stroke-linejoin:miter;stroke-miterlimit:10.43299961;stroke-dasharray:none;stroke-dashoffset:0;stroke-opacity:1"
         id="path218"
         d="m 240.42201,-407.34018 c 0,0 22.78488,125.85815 -10.15605,198.28178" />
      <path
         inkscape:connector-curvature="0"
         style="font-style:normal;font-variant:normal;font-weight:normal;font-stretch:normal;letter-spacing:normal;word-spacing:normal;text-anchor:start;fill:none;stroke:#000000;stroke-width:3.80895686;stroke-linecap:butt;stroke-linejoin:miter;stroke-miterlimit:10.43299961;stroke-dasharray:none;stroke-dashoffset:0;stroke-opacity:1"
         id="path220"
         d="m 277.16042,-408.665 c 0,0 33.11756,132.04065 -3.79748,222.5702" />
      <path
         inkscape:connector-curvature="0"
         style="font-style:normal;font-variant:normal;font-weight:normal;font-stretch:normal;letter-spacing:normal;word-spacing:normal;text-anchor:start;fill:none;stroke:#000000;stroke-width:3.80895686;stroke-linecap:butt;stroke-linejoin:miter;stroke-miterlimit:10.43299961;stroke-dasharray:none;stroke-dashoffset:0;stroke-opacity:1"
         id="path222"
         d="m 320.47819,-394.53356 c 0,0 32.94093,128.06618 1.19223,223.45341" />
      <path
         inkscape:connector-curvature="0"
         style="font-style:normal;font-variant:normal;font-weight:normal;font-stretch:normal;letter-spacing:normal;word-spacing:normal;text-anchor:start;fill:none;stroke:#000000;stroke-width:3.80895686;stroke-linecap:butt;stroke-linejoin:miter;stroke-miterlimit:10.43299961;stroke-dasharray:none;stroke-dashoffset:0;stroke-opacity:1"
         id="path224"
         d="m 362.38294,-364.06264 c 0,0 39.2995,127.18297 -8.96382,192.98249" />
      <path
         inkscape:connector-curvature="0"
         style="font-style:normal;font-variant:normal;font-weight:normal;font-stretch:normal;letter-spacing:normal;word-spacing:normal;text-anchor:start;fill:none;stroke:#000000;stroke-width:3.80895686;stroke-linecap:butt;stroke-linejoin:miter;stroke-miterlimit:10.43299961;stroke-dasharray:none;stroke-dashoffset:0;stroke-opacity:1"
         id="path226"
         d="m 212.4708,-332.2669 0,0 0.0442,0 0,0 0.0442,0 0,0 0.0442,0 0.0883,0 0.13247,0.44161 0.13247,0 0.13247,0.44161 0.17663,0.44161 0.17663,0 0.17662,0.4416 0.17663,0.44161 0.22078,0.44161 0.17663,0.44161 0.22078,0.4416 0.22079,0.44161 0.22078,0.44161 0.17663,0.88321 0.22078,0.44161 0.17663,0.44161 0.17663,0.88321 0.17662,0.44161 0.13247,0.44161 0.17663,0.88321 0.0883,0.44161 0.13247,0.88322 0.0883,0.88321 0.0442,0.44161 0,0.88321 0,0.44161 0,0.88322 -0.0883,0.88321 -0.0883,0.44161 c -1.19224,3.97447 7.59496,2.64964 12.76129,5.29929" />
      <path
         inkscape:connector-curvature="0"
         style="font-style:normal;font-variant:normal;font-weight:normal;font-stretch:normal;letter-spacing:normal;word-spacing:normal;text-anchor:start;fill:none;stroke:#000000;stroke-width:3.80895686;stroke-linecap:butt;stroke-linejoin:miter;stroke-miterlimit:10.43299961;stroke-dasharray:none;stroke-dashoffset:0;stroke-opacity:1"
         id="path228"
         d="m 212.4708,-294.28865 0,0 0.0442,0 0,0 0.0442,0 0,0 0.0442,0 0.0442,0 0.0442,0.44161 0.0442,0 0.0883,0 0.13247,0.44161 0.13247,0 0.17663,0.4416 0.17663,0.44161 0.17662,0 0.17663,0.44161 0.22078,0.44161 0.17663,0.4416 0.22078,0.44161 0.22079,0.44161 0.22078,0.44161 0.17663,0.4416 0.22078,0.88322 0.17663,0.44161 0.17663,0.4416 0.17662,0.44161 0.13247,0.88322 0.17663,0.4416 0.0883,0.44161 0.13247,0.88322 0.0883,0.4416 0.0442,0.88322 0,0.44161 0,0.4416 0,0.88322 -0.0883,0.44161 -0.0883,0.4416 c -1.19224,5.29929 7.59496,2.64965 12.76129,5.29929" />
      <path
         inkscape:connector-curvature="0"
         style="font-style:normal;font-variant:normal;font-weight:normal;font-stretch:normal;letter-spacing:normal;word-spacing:normal;text-anchor:start;fill:none;stroke:#000000;stroke-width:3.80895686;stroke-linecap:butt;stroke-linejoin:miter;stroke-miterlimit:10.43299961;stroke-dasharray:none;stroke-dashoffset:0;stroke-opacity:1"
         id="path230"
         d="m 178.16101,-300.91276 0,0 0,0 0.0442,0.4416 0,0 0.0442,0 0.0883,0 0.0883,0.44161 0.0883,0 0.0883,0.44161 0.13247,0 0.13247,0.44161 0.13247,0.44161 0.13247,0.4416 0.17662,0.44161 0.13247,0.44161 0.17663,0.44161 0.13247,0.4416 0.17663,0.44161 0.13247,0.88322 0.13247,0.4416 0.13247,0.44161 0.13247,0.88322 0.13247,0.4416 0.0883,0.88322 0.0883,0.44161 0.0883,0.88321 0.0442,0.44161 0.0442,0.88321 0.0442,0.44161 0,0.88322 -0.0442,0.4416 -0.0442,0.88322 -0.0442,0.88321 -0.0883,0.44161 c 0,3.97447 8.78719,2.64965 13.95353,4.85768" />
      <path
         inkscape:connector-curvature="0"
         style="font-style:normal;font-variant:normal;font-weight:normal;font-stretch:normal;letter-spacing:normal;word-spacing:normal;text-anchor:start;fill:none;stroke:#000000;stroke-width:3.80895686;stroke-linecap:butt;stroke-linejoin:miter;stroke-miterlimit:10.43299961;stroke-dasharray:none;stroke-dashoffset:0;stroke-opacity:1"
         id="path232"
         d="m 176.96878,-336.24136 0,0 0,0 0,0 0.0442,0 0.0442,0 0,0 0.0883,0.4416 0.13247,0 0.13247,0.44161 0.13247,0 0.17663,0.44161 0.17663,0.44161 0.17662,0.4416 0.17663,0 0.22079,0.44161 0.22078,0.44161 0.17663,0.44161 0.22078,0.88321 0.22078,0.44161 0.17663,0.44161 0.22078,0.4416 0.17663,0.88322 0.17663,0.44161 0.17663,0.4416 0.17662,0.88322 0.13247,0.44161 0.13247,0.88321 0.0883,0.44161 0.0883,0.88321 0.0442,0.44161 0.0442,0.88322 0,0.88321 -0.0442,0.44161 -0.0442,0.88321 -0.0883,0.44161 c 0,3.97447 8.78719,2.64965 13.95353,5.29929" />
      <path
         inkscape:connector-curvature="0"
         style="font-style:normal;font-variant:normal;font-weight:normal;font-stretch:normal;letter-spacing:normal;word-spacing:normal;text-anchor:start;fill:none;stroke:#000000;stroke-width:3.80895686;stroke-linecap:butt;stroke-linejoin:miter;stroke-miterlimit:10.43299961;stroke-dasharray:none;stroke-dashoffset:0;stroke-opacity:1"
         id="path234"
         d="m 185.75597,-368.03711 0,0 0,0 0,0 0,0.44161 0,0 0,0 0,0 -0.0442,0.44161 0,0 0,0.44161 0,0 -0.0442,0.4416 0,0 0,0.44161 -0.0442,0.44161 -0.0442,0.44161 0,0 -0.0442,0.4416 -0.0442,0.44161 -0.0442,0.44161 -0.0442,0.44161 -0.0442,0.4416 -0.0442,0.44161 -0.0883,0.88322 -0.0442,0.4416 -0.0883,0.44161 -0.0883,0.44161 -0.0442,0.88321 -0.13247,0.44161 -0.0883,0.88322 -0.0883,0.4416 -0.0883,0.88322 c 0,3.97447 8.96381,2.64964 13.95353,5.29929" />
      <path
         inkscape:connector-curvature="0"
         style="font-style:normal;font-variant:normal;font-weight:normal;font-stretch:normal;letter-spacing:normal;word-spacing:normal;text-anchor:start;fill:none;stroke:#000000;stroke-width:3.80895686;stroke-linecap:butt;stroke-linejoin:miter;stroke-miterlimit:10.43299961;stroke-dasharray:none;stroke-dashoffset:0;stroke-opacity:1"
         id="path236"
         d="m 216.26828,-375.54444 0,0 0.0442,0 0,0 0.0442,0 0,0 0.0442,0 0.0442,0 0.0442,0.44161 0.0883,0 0.0442,0 0.13247,0.44161 0.13247,0 0.17663,0.44161 0.17662,0.4416 0.22079,0 0.17663,0.44161 0.22078,0.44161 0.17663,0.44161 0.22078,0.44161 0.22078,0.4416 0.22079,0.44161 0.22078,0.44161 0.17663,0.88321 0.22078,0.44161 0.17663,0.44161 0.17663,0.44161 0.13247,0.88321 0.13247,0.44161 0.13247,0.44161 0.0883,0.88321 0.0883,0.44161 0.0442,0.88321 0,0.44161 0,0.44161 -0.0442,0.88321 -0.0442,0.44161 -0.13247,0.88322 c -1.19224,4.85768 7.59496,2.20803 12.76129,4.85768" />
      <path
         inkscape:connector-curvature="0"
         style="font-style:normal;font-variant:normal;font-weight:normal;font-stretch:normal;letter-spacing:normal;word-spacing:normal;text-anchor:start;fill:none;stroke:#000000;stroke-width:3.80895686;stroke-linecap:butt;stroke-linejoin:miter;stroke-miterlimit:10.43299961;stroke-dasharray:none;stroke-dashoffset:0;stroke-opacity:1"
         id="path238"
         d="m 260.77827,-378.19408 0,0 0,0 0.0442,0 0,0 0.0442,0 0.0442,0 0.0883,0.44161 0.0883,0 0.13247,0.4416 0.17663,0 0.13247,0.44161 0.17662,0.44161 0.22079,0.44161 0.17662,0 0.17663,0.4416 0.22079,0.44161 0.22078,0.44161 0.22078,0.88321 0.17663,0.44161 0.22078,0.44161 0.17663,0.44161 0.22078,0.88321 0.17663,0.44161 0.17663,0.44161 0.13247,0.88321 0.13247,0.44161 0.13247,0.88322 0.0883,0.4416 0.0883,0.88322 0.0442,0.44161 0.0442,0.88321 0,0.88322 0,0.4416 -0.0883,0.88322 -0.0883,0.44161 c 0,3.97446 8.78719,1.76643 13.95353,3.97446" />
      <path
         inkscape:connector-curvature="0"
         style="font-style:normal;font-variant:normal;font-weight:normal;font-stretch:normal;letter-spacing:normal;word-spacing:normal;text-anchor:start;fill:none;stroke:#000000;stroke-width:3.80895686;stroke-linecap:butt;stroke-linejoin:miter;stroke-miterlimit:10.43299961;stroke-dasharray:none;stroke-dashoffset:0;stroke-opacity:1"
         id="path240"
         d="m 301.31416,-379.5189 0,0 0,0 0.0442,0 0,0 0.0442,0 0.0442,0 0.0442,0.4416 0.0442,0 0.0442,0 0.0883,0 0.13247,0.44161 0.13247,0 0.17662,0.44161 0.17663,0.44161 0.17663,0 0.22078,0.4416 0.17663,0.44161 0.22078,0.44161 0.22078,0.44161 0.22079,0.4416 0.22078,0.88322 0.17663,0.44161 0.22078,0.4416 0.17663,0.44161 0.17663,0.44161 0.17662,0.88322 0.17663,0.4416 0.13247,0.44161 0.13247,0.88322 0.0883,0.4416 0.0883,0.88322 0.0442,0.44161 0,0.4416 0,0.88322 -0.0442,0.44161 -0.0883,0.88321 -0.0883,0.44161 c 0,4.85768 8.96382,2.20804 13.95353,4.85768" />
      <path
         inkscape:connector-curvature="0"
         style="font-style:normal;font-variant:normal;font-weight:normal;font-stretch:normal;letter-spacing:normal;word-spacing:normal;text-anchor:start;fill:none;stroke:#000000;stroke-width:3.80895686;stroke-linecap:butt;stroke-linejoin:miter;stroke-miterlimit:10.43299961;stroke-dasharray:none;stroke-dashoffset:0;stroke-opacity:1"
         id="path242"
         d="m 260.77827,-330.94207 0,0 0,0 0.0442,0 0,0 0.0442,0 0.0442,0 0.0883,0 0.0883,0.4416 0.13247,0 0.17663,0.44161 0.13247,0.44161 0.17662,0 0.22079,0.44161 0.17662,0.4416 0.17663,0.44161 0.22079,0.44161 0.22078,0.44161 0.22078,0.4416 0.17663,0.44161 0.22078,0.88322 0.17663,0.4416 0.22078,0.44161 0.17663,0.88322 0.17663,0.4416 0.13247,0.44161 0.13247,0.88322 0.13247,0.4416 0.0883,0.88322 0.0883,0.88321 0.0442,0.44161 0.0442,0.88322 0,0.4416 0,0.88322 -0.0883,0.44161 -0.0883,0.88321 c -1.36886,3.97447 8.78719,2.64965 12.58467,4.85768" />
      <path
         inkscape:connector-curvature="0"
         style="font-style:normal;font-variant:normal;font-weight:normal;font-stretch:normal;letter-spacing:normal;word-spacing:normal;text-anchor:start;fill:none;stroke:#000000;stroke-width:3.80895686;stroke-linecap:butt;stroke-linejoin:miter;stroke-miterlimit:10.43299961;stroke-dasharray:none;stroke-dashoffset:0;stroke-opacity:1"
         id="path244"
         d="m 261.9705,-288.10614 0,0 0.0442,0 0,0 0.0442,0 0,0.4416 0.0442,0 0.0883,0 0.13247,0 0.13247,0.44161 0.13247,0.44161 0.17663,0 0.17662,0.44161 0.17663,0.4416 0.17663,0.44161 0.22078,0.44161 0.17663,0.44161 0.22078,0.4416 0.22078,0.44161 0.22079,0.44161 0.17663,0.44161 0.22078,0.88321 0.17663,0.44161 0.17662,0.44161 0.17663,0.88321 0.17663,0.44161 0.13247,0.88321 0.0883,0.44161 0.13247,0.88322 0.0883,0.4416 0.0442,0.88322 0,0.44161 0.0442,0.88321 -0.0442,0.44161 -0.0883,0.88321 -0.0883,0.88322 c 0,3.97447 8.96382,2.64964 13.99769,4.85768" />
      <path
         inkscape:connector-curvature="0"
         style="font-style:normal;font-variant:normal;font-weight:normal;font-stretch:normal;letter-spacing:normal;word-spacing:normal;text-anchor:start;fill:none;stroke:#000000;stroke-width:3.80895686;stroke-linecap:butt;stroke-linejoin:miter;stroke-miterlimit:10.43299961;stroke-dasharray:none;stroke-dashoffset:0;stroke-opacity:1"
         id="path246"
         d="m 306.4805,-286.78132 0,0 0.0442,0 0,0 0,0 0.0442,0 0.0442,0.44161 0.0883,0 0.13247,0 0.0883,0.4416 0.17662,0 0.13248,0.44161 0.17662,0.44161 0.22079,0.44161 0.17662,0.4416 0.22079,0.44161 0.17662,0.44161 0.22079,0.44161 0.22078,0.4416 0.17663,0.44161 0.22078,0.44161 0.22079,0.88321 0.17662,0.44161 0.17663,0.44161 0.17663,0.88321 0.13247,0.44161 0.17662,0.88322 0.0883,0.4416 0.13247,0.88322 0.0442,0.44161 0.0883,0.88321 0,0.44161 0,0.88321 0,0.88322 -0.0883,0.44161 -0.0883,0.88321 c -1.36886,3.53286 7.59496,2.64965 12.58467,4.85768" />
      <path
         inkscape:connector-curvature="0"
         style="font-style:normal;font-variant:normal;font-weight:normal;font-stretch:normal;letter-spacing:normal;word-spacing:normal;text-anchor:start;fill:none;stroke:#000000;stroke-width:3.80895686;stroke-linecap:butt;stroke-linejoin:miter;stroke-miterlimit:10.43299961;stroke-dasharray:none;stroke-dashoffset:0;stroke-opacity:1"
         id="path248"
         d="m 303.91941,-333.59172 0,0 0,0 0,0 0.0442,0 0.0442,0 0,0 0.0883,0.44161 0.13247,0 0.13247,0.44161 0.13247,0 0.17662,0.4416 0.17663,0 0.17663,0.44161 0.17662,0.44161 0.22079,0.44161 0.22078,0.4416 0.17663,0.44161 0.22078,0.44161 0.22079,0.88321 0.17662,0.44161 0.22079,0.44161 0.17662,0.44161 0.17663,0.88321 0.17663,0.44161 0.17663,0.88321 0.13247,0.44161 0.13247,0.88322 0.0883,0.4416 0.0883,0.88322 0.0442,0.44161 0.0442,0.88321 0,0.44161 -0.0442,0.88321 -0.0442,0.88322 -0.0883,0.44161 c -1.23639,3.97446 8.96382,1.32482 12.7613,3.97446" />
      <path
         inkscape:connector-curvature="0"
         style="font-style:normal;font-variant:normal;font-weight:normal;font-stretch:normal;letter-spacing:normal;word-spacing:normal;text-anchor:start;fill:none;stroke:#000000;stroke-width:3.80895686;stroke-linecap:butt;stroke-linejoin:miter;stroke-miterlimit:10.43299961;stroke-dasharray:none;stroke-dashoffset:0;stroke-opacity:1"
         id="path250"
         d="m 344.4553,-337.56619 0,0 0,0 0,0 0.0442,0 0.0442,0.44161 0,0 0.0442,0 0.0883,0 0.0442,0 0.0442,0 0.13247,0.44161 0.17662,0 0.13247,0.44161 0.22079,0.4416 0.17662,0.44161 0.22079,0 0.17662,0.44161 0.22079,0.44161 0.22078,0.4416 0.22079,0.44161 0.22078,0.88322 0.22078,0.4416 0.17663,0.44161 0.22078,0.44161 0.17663,0.44161 0.17663,0.88321 0.17662,0.44161 0.13247,0.44161 0.13248,0.88321 0.0883,0.44161 0.0883,0.88321 0.0883,0.44161 0,0.44161 0.0442,0.88321 -0.0442,0.44161 -0.0442,0.88322 -0.13247,0.4416 c -1.36886,4.85769 8.83135,2.20804 12.62883,4.85769" />
      <path
         inkscape:connector-curvature="0"
         style="font-style:normal;font-variant:normal;font-weight:normal;font-stretch:normal;letter-spacing:normal;word-spacing:normal;text-anchor:start;fill:none;stroke:#000000;stroke-width:3.80895686;stroke-linecap:butt;stroke-linejoin:miter;stroke-miterlimit:10.43299961;stroke-dasharray:none;stroke-dashoffset:0;stroke-opacity:1"
         id="path252"
         d="m 380.13395,-340.21583 0,0 0.0441,0 0,0 0,0.4416 0.0442,0 0.0442,0 0.0883,0 0.13247,0 0.0883,0.44161 0.17663,0 0.13247,0.44161 0.17663,0.44161 0.22078,0 0.17663,0.4416 0.22078,0.44161 0.17663,0.44161 0.22078,0.44161 0.22079,0.44161 0.17662,0.4416 0.22079,0.44161 0.22078,0.44161 0.17663,0.44161 0.17662,0.4416 0.17663,0.88322 0.13247,0.44161 0.13247,0.4416 0.13247,0.88322 0.13247,0.44161 0.0442,0.88321 0.0883,0.44161 0,0.88321 0,0.44161 0,0.88322 -0.0883,0.4416 -0.0883,0.88322 c -1.36886,3.97447 8.78719,2.64964 12.58467,4.85768" />
      <path
         inkscape:connector-curvature="0"
         style="font-style:normal;font-variant:normal;font-weight:normal;font-stretch:normal;letter-spacing:normal;word-spacing:normal;text-anchor:start;fill:none;stroke:#000000;stroke-width:3.80895686;stroke-linecap:butt;stroke-linejoin:miter;stroke-miterlimit:10.43299961;stroke-dasharray:none;stroke-dashoffset:0;stroke-opacity:1"
         id="path254"
         d="m 335.62395,-380.84373 0,0 0.0442,0 0,0 0.0442,0 0,0.44161 0.0442,0 0.0442,0 0.0442,0 0.0442,0 0.0883,0 0.13247,0.44161 0.13247,0 0.17663,0.44161 0.17663,0.4416 0.17663,0.44161 0.17662,0 0.22079,0.44161 0.17662,0.44161 0.22079,0.4416 0.22078,0.44161 0.22078,0.88322 0.17663,0.4416 0.22078,0.44161 0.17663,0.44161 0.17663,0.44161 0.17663,0.88321 0.17662,0.44161 0.13247,0.44161 0.0883,0.88321 0.13247,0.44161 0.0883,0.88322 0.0442,0.4416 0,0.44161 0.0442,0.88322 -0.0442,0.4416 -0.0883,0.44161 -0.0883,0.88322 c -1.19223,5.29929 8.96382,2.64964 12.7613,5.29929" />
      <path
         inkscape:connector-curvature="0"
         style="font-style:normal;font-variant:normal;font-weight:normal;font-stretch:normal;letter-spacing:normal;word-spacing:normal;text-anchor:start;fill:none;stroke:#000000;stroke-width:3.80895686;stroke-linecap:butt;stroke-linejoin:miter;stroke-miterlimit:10.43299961;stroke-dasharray:none;stroke-dashoffset:0;stroke-opacity:1"
         id="path256"
         d="m 352.18273,-288.10614 0,0 0.0442,0 0,0 0,0 0.0442,0.4416 0.0883,0 0.0883,0 0.0883,0.44161 0.13247,0.44161 0.0883,0 0.13247,0.44161 0.13247,0.4416 0.17662,0.44161 0.13247,0.44161 0.13247,0.44161 0.17663,0.4416 0.13247,0.44161 0.13247,0.44161 0.17663,0.44161 0.13247,0.88321 0.13247,0.44161 0.13247,0.44161 0.0883,0.88321 0.0883,0.44161 0.0883,0.88321 0.0883,0.44161 0.0442,0.88322 0.0442,0.4416 0,0.88322 0,0.44161 -0.0442,0.88321 -0.0442,0.44161 -0.0883,0.88321 -0.13247,0.88322 c 0,3.97447 8.96382,1.32482 13.95353,3.97447" />
      <path
         inkscape:connector-curvature="0"
         style="font-style:normal;font-variant:normal;font-weight:normal;font-stretch:normal;letter-spacing:normal;word-spacing:normal;text-anchor:start;fill:none;stroke:#000000;stroke-width:3.80895686;stroke-linecap:butt;stroke-linejoin:miter;stroke-miterlimit:10.43299961;stroke-dasharray:none;stroke-dashoffset:0;stroke-opacity:1"
         id="path258"
         d="m 349.62164,-243.50378 0,0 0,0 0.0442,0 0,0 0.0442,0 0.0442,0.4416 0.0883,0 0.0883,0 0.13247,0.44161 0.13247,0 0.17663,0.44161 0.17663,0.44161 0.17663,0.4416 0.22078,0 0.17663,0.44161 0.22078,0.44161 0.22078,0.88321 0.17663,0.44161 0.22078,0.44161 0.22079,0.44161 0.17663,0.4416 0.17662,0.88322 0.22079,0.44161 0.13247,0.4416 0.17662,0.88322 0.13247,0.44161 0.13247,0.88321 0.0883,0.44161 0.0883,0.88321 0.0442,0.88322 0.0442,0.44161 0,0.88321 -0.0442,0.44161 -0.0442,0.88321 -0.0883,0.44161 c 0,3.97447 8.96382,2.64965 13.95353,5.29929" />
      <path
         inkscape:connector-curvature="0"
         style="font-style:normal;font-variant:normal;font-weight:normal;font-stretch:normal;letter-spacing:normal;word-spacing:normal;text-anchor:start;fill:none;stroke:#000000;stroke-width:3.80895686;stroke-linecap:butt;stroke-linejoin:miter;stroke-miterlimit:10.43299961;stroke-dasharray:none;stroke-dashoffset:0;stroke-opacity:1"
         id="path260"
         d="m 394.13163,-296.93829 0,0 0,0 0,0 0.0442,0 0.0442,0 0.0442,0.4416 0.0883,0 0.0883,0.44161 0.13247,0 0.13247,0.44161 0.0883,0.44161 0.17663,0.4416 0.13247,0.44161 0.13247,0 0.17663,0.88322 0.13247,0.4416 0.13247,0.44161 0.17663,0.44161 0.13247,0.44161 0.13247,0.88321 0.13247,0.44161 0.13247,0.44161 0.0883,0.88321 0.0883,0.44161 0.0883,0.88321 0.0883,0.44161 0.0442,0.88322 0.0442,0.4416 0,0.88322 0,0.44161 -0.0442,0.88321 -0.0442,0.88322 -0.0883,0.4416 -0.13247,0.88322 c 0,3.53286 8.96382,0.88321 13.99768,3.53286" />
      <path
         inkscape:connector-curvature="0"
         style="font-style:normal;font-variant:normal;font-weight:normal;font-stretch:normal;letter-spacing:normal;word-spacing:normal;text-anchor:start;fill:none;stroke:#000000;stroke-width:3.80895686;stroke-linecap:butt;stroke-linejoin:miter;stroke-miterlimit:10.43299961;stroke-dasharray:none;stroke-dashoffset:0;stroke-opacity:1"
         id="path262"
         d="m 391.52639,-253.66076 0,0 0,0 0.0442,0 0,0 0.0442,0 0.0442,0.44161 0.0883,0 0.0883,0 0.13247,0.44161 0.17663,0 0.13247,0.44161 0.17663,0.4416 0.17662,0.44161 0.22079,0 0.17662,0.44161 0.22079,0.44161 0.22078,0.88321 0.22079,0.44161 0.17662,0.44161 0.22079,0.4416 0.17662,0.44161 0.22079,0.88322 0.17662,0.4416 0.17663,0.44161 0.13247,0.88322 0.13247,0.4416 0.13247,0.88322 0.0883,0.44161 0.0883,0.88321 0.0442,0.88322 0.0442,0.4416 0,0.88322 -0.0442,0.44161 -0.0442,0.88321 -0.0883,0.44161 c 0,3.97447 8.78719,2.64964 13.95353,5.29929" />
      <path
         inkscape:connector-curvature="0"
         style="font-style:normal;font-variant:normal;font-weight:normal;font-stretch:normal;letter-spacing:normal;word-spacing:normal;text-anchor:start;fill:none;stroke:#000000;stroke-width:3.80895686;stroke-linecap:butt;stroke-linejoin:miter;stroke-miterlimit:10.43299961;stroke-dasharray:none;stroke-dashoffset:0;stroke-opacity:1"
         id="path264"
         d="m 338.2292,-204.20071 0,0 0,0 0.0442,0 0,0 0.0442,0.4416 0.0442,0 0.0883,0 0.0883,0 0.13247,0.44161 0.17662,0.44161 0.13247,0 0.17663,0.44161 0.17663,0.4416 0.22078,0.44161 0.17663,0.44161 0.22078,0.44161 0.22078,0.4416 0.17663,0.44161 0.22079,0.44161 0.22078,0.44161 0.17663,0.88321 0.22078,0.44161 0.17663,0.44161 0.17662,0.88321 0.13247,0.44161 0.13247,0.88321 0.13247,0.44161 0.0883,0.88322 0.0883,0.4416 0.0442,0.88322 0.0442,0.88321 0,0.44161 -0.0442,0.88322 -0.0442,0.44161 -0.0883,0.88321 c -1.36886,3.97447 8.78719,2.64965 12.58467,4.85768" />
      <path
         inkscape:connector-curvature="0"
         style="font-style:normal;font-variant:normal;font-weight:normal;font-stretch:normal;letter-spacing:normal;word-spacing:normal;text-anchor:start;fill:none;stroke:#000000;stroke-width:3.80895686;stroke-linecap:butt;stroke-linejoin:miter;stroke-miterlimit:10.43299961;stroke-dasharray:none;stroke-dashoffset:0;stroke-opacity:1"
         id="path266"
         d="m 296.32445,-201.55107 0,0 0,0 0.0442,0 0,0 0.0442,0 0.0442,0 0.0883,0.44161 0.0883,0 0.13247,0 0.13247,0.44161 0.17662,0.4416 0.17663,0 0.17663,0.44161 0.22078,0.44161 0.17663,0 0.22078,0.44161 0.22079,0.4416 0.17662,0.44161 0.22079,0.44161 0.22078,0.88321 0.17663,0.44161 0.17662,0.44161 0.22079,0.44161 0.13247,0.4416 0.17663,0.88322 0.13247,0.44161 0.13247,0.4416 0.0883,0.88322 0.0883,0.44161 0.0442,0.88321 0.0442,0.44161 0,0.88322 -0.0442,0.88321 -0.0442,0.44161 -0.0883,0.88321 c 0,3.53286 8.78719,2.64965 13.95353,4.85769" />
      <path
         inkscape:connector-curvature="0"
         style="font-style:normal;font-variant:normal;font-weight:normal;font-stretch:normal;letter-spacing:normal;word-spacing:normal;text-anchor:start;fill:none;stroke:#000000;stroke-width:3.80895686;stroke-linecap:butt;stroke-linejoin:miter;stroke-miterlimit:10.43299961;stroke-dasharray:none;stroke-dashoffset:0;stroke-opacity:1"
         id="path270"
         d="m 255.61193,-244.82861 0,0 0,0 0.0442,0 0,0.44161 0.0442,0 0.0442,0 0.0883,0 0.0883,0 0.17663,0.44161 0.13247,0 0.17662,0.44161 0.17663,0.4416 0.17663,0 0.22078,0.44161 0.17663,0.44161 0.22078,0.44161 0.22079,0.4416 0.22078,0.44161 0.22078,0.44161 0.17663,0.44161 0.22079,0.4416 0.17662,0.44161 0.17663,0.44161 0.17663,0.88321 0.17662,0.44161 0.13247,0.44161 0.13247,0.88321 0.0883,0.44161 0.0442,0.88322 0.0883,0.4416 0,0.88322 0,0.44161 -0.0442,0.88321 -0.0883,0.44161 -0.0883,0.88321 c 0,3.97447 8.96382,2.20804 13.95353,4.85769" />
      <path
         inkscape:connector-curvature="0"
         style="font-style:normal;font-variant:normal;font-weight:normal;font-stretch:normal;letter-spacing:normal;word-spacing:normal;text-anchor:start;fill:none;stroke:#000000;stroke-width:3.80895686;stroke-linecap:butt;stroke-linejoin:miter;stroke-miterlimit:10.43299961;stroke-dasharray:none;stroke-dashoffset:0;stroke-opacity:1"
         id="path272"
         d="m 301.31416,-242.17896 0,0 0,0 0.0442,0 0,0 0.0442,0 0.0442,0 0.0442,0.44161 0.0442,0 0.13247,0 0.13247,0.4416 0.13247,0 0.17662,0.44161 0.17663,0.44161 0.17663,0 0.22078,0.44161 0.17663,0.4416 0.22078,0.44161 0.22078,0.44161 0.22079,0.88321 0.22078,0.44161 0.17663,0.44161 0.22078,0.44161 0.17663,0.88321 0.17663,0.44161 0.17662,0.44161 0.17663,0.88321 0.13247,0.44161 0.13247,0.88321 0.0883,0.44161 0.0883,0.88322 0.0442,0.88321 0,0.44161 0,0.88321 -0.0442,0.44161 -0.0883,0.88322 -0.0883,0.88321 c -1.19223,3.53286 8.96382,2.20804 13.95353,3.53286" />
      <path
         inkscape:connector-curvature="0"
         style="font-style:normal;font-variant:normal;font-weight:normal;font-stretch:normal;letter-spacing:normal;word-spacing:normal;text-anchor:start;fill:none;stroke:#000000;stroke-width:3.80895686;stroke-linecap:butt;stroke-linejoin:miter;stroke-miterlimit:10.43299961;stroke-dasharray:none;stroke-dashoffset:0;stroke-opacity:1"
         id="path274"
         d="m 209.90971,-253.66076 0,0 0,0 0.0442,0 0.0883,0 0.0883,0.44161 0.0883,0 0.13247,0.44161 0.17663,0 0.17663,0.44161 0.17662,0 0.17663,0.4416 0.17663,0.44161 0.22078,0.44161 0.22079,0.44161 0.22078,0.4416 0.22078,0.44161 0.17663,0.44161 0.22078,0.44161 0.22079,0.4416 0.17662,0.44161 0.17663,0.88322 0.17663,0.4416 0.17663,0.88322 0.13247,0.44161 0.0883,0.88321 0.13247,0.44161 0.0442,0.88321 0.0442,0.88322 0.0442,0.44161 0,0.88321 -0.0442,0.88322 -0.0883,0.88321 -0.0883,0.44161 c -1.23639,3.97447 7.72743,2.64964 12.76129,5.29929" />
      <path
         inkscape:connector-curvature="0"
         style="font-style:normal;font-variant:normal;font-weight:normal;font-stretch:normal;letter-spacing:normal;word-spacing:normal;text-anchor:start;fill:#f9da00;fill-opacity:1;fill-rule:evenodd;stroke:#ffff00;stroke-width:0;stroke-linecap:butt;stroke-linejoin:miter;stroke-miterlimit:10.43299961;stroke-dasharray:none;stroke-dashoffset:0;stroke-opacity:1"
         id="path276"
         d="m 641.63017,-415.28911 2.60525,0 2.56109,0 2.51694,-0.44161 2.47277,-0.44161 2.42862,-0.44161 2.38447,-0.4416 2.29615,-0.88322 2.25199,-0.88321 2.20784,-0.88322 2.16368,-1.32482 2.03121,-0.88322 2.03121,-1.32482 1.9429,-1.32482 1.85458,-1.76643 1.76627,-1.32482 1.72211,-1.76643 1.6338,-1.76643 1.54549,-1.76643 1.41301,-1.76643 1.36886,-1.76643 1.28055,-2.20804 1.19223,-2.20804 1.05976,-1.76643 0.97145,-2.20804 0.88313,-2.64964 0.75067,-2.20804 0.66235,-2.20804 0.52988,-2.64964 0.44157,-2.20804 0.3091,-2.64965 0.17662,-2.64964 0.0442,-2.64965 c 0,-27.82127 -21.54849,-49.46004 -49.49971,-49.46004 -27.95122,0 -49.49971,21.63877 -49.49971,49.46004 0,28.26289 21.54849,49.46005 49.49971,49.46005 z" />
      <path
         inkscape:connector-curvature="0"
         style="font-style:normal;font-variant:normal;font-weight:normal;font-stretch:normal;letter-spacing:normal;word-spacing:normal;text-anchor:start;fill:none;stroke:#000000;stroke-width:10.15739536;stroke-linecap:butt;stroke-linejoin:miter;stroke-miterlimit:10.43299961;stroke-dasharray:none;stroke-dashoffset:0;stroke-opacity:1"
         id="path278"
         d="m 641.63017,-415.28911 2.60525,0 2.56109,0 2.51694,-0.44161 2.47277,-0.44161 2.42862,-0.44161 2.38447,-0.4416 2.29615,-0.88322 2.25199,-0.88321 2.20784,-0.88322 2.16368,-1.32482 2.03121,-0.88322 2.03121,-1.32482 1.9429,-1.32482 1.85458,-1.76643 1.76627,-1.32482 1.72211,-1.76643 1.6338,-1.76643 1.54549,-1.76643 1.41301,-1.76643 1.36886,-1.76643 1.28055,-2.20804 1.19223,-2.20804 1.05976,-1.76643 0.97145,-2.20804 0.88313,-2.64964 0.75067,-2.20804 0.66235,-2.20804 0.52988,-2.64964 0.44157,-2.20804 0.3091,-2.64965 0.17662,-2.64964 0.0442,-2.64965 c 0,-27.82127 -21.54849,-49.46004 -49.49971,-49.46004 -27.95122,0 -49.49971,21.63877 -49.49971,49.46004 0,28.26289 21.54849,49.46005 49.49971,49.46005 z" />
      <path
         inkscape:connector-curvature="0"
         style="font-style:normal;font-variant:normal;font-weight:normal;font-stretch:normal;letter-spacing:normal;word-spacing:normal;text-anchor:start;fill:#ffff00;fill-opacity:1;fill-rule:evenodd;stroke:#ffff00;stroke-width:0;stroke-linecap:butt;stroke-linejoin:miter;stroke-miterlimit:10.43299961;stroke-dasharray:none;stroke-dashoffset:0;stroke-opacity:1"
         id="path280"
         d="m 602.28652,-391.0007 2.51693,0 2.42862,0 2.42862,-0.44161 2.38447,-0.4416 2.38446,-0.44161 2.29615,-0.88322 2.29615,-0.88321 2.20784,-0.88322 2.20783,-0.88321 2.11953,-0.88322 2.07536,-1.32482 1.98706,-1.32482 1.98705,-1.32482 1.85458,-1.32483 1.81043,-1.76643 1.76627,-1.32482 1.6338,-1.76643 1.58964,-1.76643 1.50133,-1.76643 1.36886,-2.20804 1.3247,-1.76643 1.23639,-2.20804 1.10392,-2.20803 1.01561,-2.20804 0.92729,-2.20804 0.79482,-2.20804 0.66235,-2.64964 0.57404,-2.20804 0.44157,-2.64964 0.35325,-2.20804 0.17663,-2.64965 0.0883,-2.64964 c 0,-27.82128 -22.96151,-49.90165 -49.54386,-49.90165 -27.90707,0 -50.86857,22.08037 -50.86857,49.90165 0,27.82127 22.9615,49.46004 50.86857,49.46004 z" />
      <path
         inkscape:connector-curvature="0"
         style="font-style:normal;font-variant:normal;font-weight:normal;font-stretch:normal;letter-spacing:normal;word-spacing:normal;text-anchor:start;fill:#f9da00;fill-opacity:1;stroke:#000000;stroke-width:10.15739536;stroke-linecap:butt;stroke-linejoin:miter;stroke-miterlimit:10.43299961;stroke-dasharray:none;stroke-dashoffset:0;stroke-opacity:1"
         id="path282"
         d="m 602.28652,-391.0007 2.51693,0 2.42862,0 2.42862,-0.44161 2.38447,-0.4416 2.38446,-0.44161 2.29615,-0.88322 2.29615,-0.88321 2.20784,-0.88322 2.20783,-0.88321 2.11953,-0.88322 2.07536,-1.32482 1.98706,-1.32482 1.98705,-1.32482 1.85458,-1.32483 1.81043,-1.76643 1.76627,-1.32482 1.6338,-1.76643 1.58964,-1.76643 1.50133,-1.76643 1.36886,-2.20804 1.3247,-1.76643 1.23639,-2.20804 1.10392,-2.20803 1.01561,-2.20804 0.92729,-2.20804 0.79482,-2.20804 0.66235,-2.64964 0.57404,-2.20804 0.44157,-2.64964 0.35325,-2.20804 0.17663,-2.64965 0.0883,-2.64964 c 0,-27.82128 -22.96151,-49.90165 -49.54386,-49.90165 -27.90707,0 -50.86857,22.08037 -50.86857,49.90165 0,27.82127 22.9615,49.46004 50.86857,49.46004 z" />
      <path
         inkscape:connector-curvature="0"
         style="font-style:normal;font-variant:normal;font-weight:normal;font-stretch:normal;letter-spacing:normal;word-spacing:normal;text-anchor:start;fill:#f9da00;fill-opacity:1;fill-rule:evenodd;stroke:#ffff00;stroke-width:0;stroke-linecap:butt;stroke-linejoin:miter;stroke-miterlimit:10.43299961;stroke-dasharray:none;stroke-dashoffset:0;stroke-opacity:1"
         id="path284"
         d="m 536.22803,-333.59172 2.47278,0 2.47277,-0.44161 2.42862,0 2.38447,-0.4416 2.38446,-0.88322 2.29615,-0.44161 2.29615,-0.88321 2.20784,-0.88322 2.20784,-0.88321 2.11952,-1.32483 2.07537,-0.88321 1.98705,-1.32482 1.98706,-1.32483 1.85458,-1.76643 1.81043,-1.32482 1.72211,-1.76643 1.67795,-1.76643 1.58965,-1.76643 1.50133,-1.76643 1.36886,-1.76643 1.3247,-2.20804 1.23639,-2.20803 1.10391,-1.76643 1.01561,-2.20804 0.88313,-2.64965 0.79483,-2.20803 0.7065,-2.20804 0.57404,-2.64965 0.44157,-2.20804 0.3091,-2.64964 0.22078,-2.64965 0.0442,-2.64964 c 0,-27.82128 -22.91735,-49.46004 -49.49971,-49.46004 -27.90706,0 -50.69194,21.63876 -50.69194,49.46004 0,28.26288 22.78488,49.90165 50.69194,49.90165 z" />
      <path
         inkscape:connector-curvature="0"
         style="font-style:normal;font-variant:normal;font-weight:normal;font-stretch:normal;letter-spacing:normal;word-spacing:normal;text-anchor:start;fill:none;stroke:#000000;stroke-width:10.15739536;stroke-linecap:butt;stroke-linejoin:miter;stroke-miterlimit:10.43299961;stroke-dasharray:none;stroke-dashoffset:0;stroke-opacity:1"
         id="path286"
         d="m 536.22803,-333.59172 2.47278,0 2.47277,-0.44161 2.42862,0 2.38447,-0.4416 2.38446,-0.88322 2.29615,-0.44161 2.29615,-0.88321 2.20784,-0.88322 2.20784,-0.88321 2.11952,-1.32483 2.07537,-0.88321 1.98705,-1.32482 1.98706,-1.32483 1.85458,-1.76643 1.81043,-1.32482 1.72211,-1.76643 1.67795,-1.76643 1.58965,-1.76643 1.50133,-1.76643 1.36886,-1.76643 1.3247,-2.20804 1.23639,-2.20803 1.10391,-1.76643 1.01561,-2.20804 0.88313,-2.64965 0.79483,-2.20803 0.7065,-2.20804 0.57404,-2.64965 0.44157,-2.20804 0.3091,-2.64964 0.22078,-2.64965 0.0442,-2.64964 c 0,-27.82128 -22.91735,-49.46004 -49.49971,-49.46004 -27.90706,0 -50.69194,21.63876 -50.69194,49.46004 0,28.26288 22.78488,49.90165 50.69194,49.90165 z" />
      <path
         inkscape:connector-curvature="0"
         style="font-style:normal;font-variant:normal;font-weight:normal;font-stretch:normal;letter-spacing:normal;word-spacing:normal;text-anchor:start;fill:#ffff00;fill-opacity:1;fill-rule:evenodd;stroke:#ffff00;stroke-width:0;stroke-linecap:butt;stroke-linejoin:miter;stroke-miterlimit:10.43299961;stroke-dasharray:none;stroke-dashoffset:0;stroke-opacity:1"
         id="path288"
         d="m 628.86887,-337.56619 2.47278,0 2.47278,0 2.47278,-0.44161 2.38446,-0.4416 2.38446,-0.44161 2.29616,-0.88322 2.29615,-0.88321 2.25199,-0.88322 2.16368,-0.88321 2.11952,-1.32482 2.07537,-0.88322 2.03121,-1.32482 1.9429,-1.76643 1.85458,-1.32482 1.81043,-1.76643 1.76627,-1.32483 1.6338,-1.76643 1.58964,-1.76643 1.45717,-2.20803 1.41302,-1.76643 1.3247,-2.20804 1.19223,-1.76643 1.10392,-2.20804 1.0156,-2.20804 0.9273,-2.20803 0.79482,-2.20804 0.66235,-2.64965 0.57404,-2.20804 0.44156,-2.64964 0.3091,-2.20804 0.22078,-2.64964 0.0442,-2.20804 c 0,-28.26288 -22.78488,-51.22647 -49.49971,-51.22647 -27.95121,0 -50.69194,22.96359 -50.69194,51.22647 0,26.49645 22.74073,49.46004 50.69194,49.46004 z" />
      <path
         inkscape:connector-curvature="0"
         style="font-style:normal;font-variant:normal;font-weight:normal;font-stretch:normal;letter-spacing:normal;word-spacing:normal;text-anchor:start;fill:#f9da00;fill-opacity:1;stroke:#000000;stroke-width:10.15739536;stroke-linecap:butt;stroke-linejoin:miter;stroke-miterlimit:10.43299961;stroke-dasharray:none;stroke-dashoffset:0;stroke-opacity:1"
         id="path290"
         d="m 628.86887,-337.56619 2.47278,0 2.47278,0 2.47278,-0.44161 2.38446,-0.4416 2.38446,-0.44161 2.29616,-0.88322 2.29615,-0.88321 2.25199,-0.88322 2.16368,-0.88321 2.11952,-1.32482 2.07537,-0.88322 2.03121,-1.32482 1.9429,-1.76643 1.85458,-1.32482 1.81043,-1.76643 1.76627,-1.32483 1.6338,-1.76643 1.58964,-1.76643 1.45717,-2.20803 1.41302,-1.76643 1.3247,-2.20804 1.19223,-1.76643 1.10392,-2.20804 1.0156,-2.20804 0.9273,-2.20803 0.79482,-2.20804 0.66235,-2.64965 0.57404,-2.20804 0.44156,-2.64964 0.3091,-2.20804 0.22078,-2.64964 0.0442,-2.20804 c 0,-28.26288 -22.78488,-51.22647 -49.49971,-51.22647 -27.95121,0 -50.69194,22.96359 -50.69194,51.22647 0,26.49645 22.74073,49.46004 50.69194,49.46004 z" />
      <path
         inkscape:connector-curvature="0"
         style="font-style:normal;font-variant:normal;font-weight:normal;font-stretch:normal;letter-spacing:normal;word-spacing:normal;text-anchor:start;fill:#f9da00;fill-opacity:1;fill-rule:evenodd;stroke:#ffff00;stroke-width:0;stroke-linecap:butt;stroke-linejoin:miter;stroke-miterlimit:10.43299961;stroke-dasharray:none;stroke-dashoffset:0;stroke-opacity:1"
         id="path292"
         d="m 611.11786,-315.92742 2.47278,0 2.47278,0 2.42862,-0.44161 2.42862,-0.4416 2.34031,-0.44161 2.3403,-0.88322 2.29616,-0.88321 2.20783,-0.88322 2.20784,-0.88321 2.11952,-0.88322 2.07537,-1.32482 1.98705,-1.32482 1.98706,-1.32482 1.85458,-1.32483 1.81043,-1.76643 1.72211,-1.32482 1.67796,-1.76643 1.54548,-1.76643 1.50133,-1.76643 1.41302,-2.20804 1.28054,-1.76643 1.23639,-2.20804 1.10392,-2.20803 1.0156,-2.20804 0.88314,-2.20804 0.79482,-2.20804 0.70651,-2.64964 0.52988,-2.20804 0.44157,-2.64964 0.35325,-2.20804 0.17663,-2.64965 0.0883,-2.64964 c 0,-28.26288 -22.78488,-49.90165 -49.49971,-49.90165 -27.95121,0 -50.73609,21.63877 -50.73609,49.90165 0,27.82127 22.78488,49.46004 50.73609,49.46004 z" />
      <path
         inkscape:connector-curvature="0"
         style="font-style:normal;font-variant:normal;font-weight:normal;font-stretch:normal;letter-spacing:normal;word-spacing:normal;text-anchor:start;fill:none;stroke:#000000;stroke-width:10.15739536;stroke-linecap:butt;stroke-linejoin:miter;stroke-miterlimit:10.43299961;stroke-dasharray:none;stroke-dashoffset:0;stroke-opacity:1"
         id="path294"
         d="m 611.11786,-315.92742 2.47278,0 2.47278,0 2.42862,-0.44161 2.42862,-0.4416 2.34031,-0.44161 2.3403,-0.88322 2.29616,-0.88321 2.20783,-0.88322 2.20784,-0.88321 2.11952,-0.88322 2.07537,-1.32482 1.98705,-1.32482 1.98706,-1.32482 1.85458,-1.32483 1.81043,-1.76643 1.72211,-1.32482 1.67796,-1.76643 1.54548,-1.76643 1.50133,-1.76643 1.41302,-2.20804 1.28054,-1.76643 1.23639,-2.20804 1.10392,-2.20803 1.0156,-2.20804 0.88314,-2.20804 0.79482,-2.20804 0.70651,-2.64964 0.52988,-2.20804 0.48572,-2.64964 0.3091,-2.20804 0.17663,-2.64965 0.0883,-2.64964 c 0,-28.26288 -22.78488,-49.90165 -49.49971,-49.90165 -27.95121,0 -50.73609,21.63877 -50.73609,49.90165 0,27.82127 22.78488,49.46004 50.73609,49.46004 z" />
      <path
         inkscape:connector-curvature="0"
         style="font-style:normal;font-variant:normal;font-weight:normal;font-stretch:normal;letter-spacing:normal;word-spacing:normal;text-anchor:start;fill:#ffff00;fill-opacity:1;fill-rule:evenodd;stroke:#ffff00;stroke-width:0;stroke-linecap:butt;stroke-linejoin:miter;stroke-miterlimit:10.43299961;stroke-dasharray:none;stroke-dashoffset:0;stroke-opacity:1"
         id="path296"
         d="m 479.13336,-267.7922 2.51694,0 2.42862,0 2.42862,-0.44161 2.38446,-0.4416 2.38447,-0.44161 2.29615,-0.88322 2.29615,-0.4416 2.20783,-0.88322 2.20784,-0.88321 2.11952,-1.32483 2.07537,-1.32482 1.98705,-0.88321 1.98706,-1.32483 1.85458,-1.76643 1.81043,-1.32482 1.76627,-1.76643 1.6338,-1.76643 1.58964,-1.76643 1.50133,-1.76643 1.36886,-1.76643 1.3247,-2.20804 1.23639,-2.20803 1.10392,-1.76643 1.0156,-2.20804 0.88314,-2.64965 0.83898,-2.20804 0.66235,-2.20803 0.57403,-2.64965 0.44157,-2.20804 0.35326,-2.64964 0.17662,-2.64965 0.0442,-2.64964 c 0,-27.82128 -22.91735,-49.46004 -49.49971,-49.46004 -27.90706,0 -50.86857,21.63876 -50.86857,49.46004 0,28.26288 22.96151,49.46004 50.86857,49.46004 z" />
      <path
         inkscape:connector-curvature="0"
         style="font-style:normal;font-variant:normal;font-weight:normal;font-stretch:normal;letter-spacing:normal;word-spacing:normal;text-anchor:start;fill:#f9da00;fill-opacity:1;stroke:#000000;stroke-width:10.15739536;stroke-linecap:butt;stroke-linejoin:miter;stroke-miterlimit:10.43299961;stroke-dasharray:none;stroke-dashoffset:0;stroke-opacity:1"
         id="path298"
         d="m 479.13336,-267.7922 2.51694,0 2.42862,0 2.42862,-0.44161 2.38446,-0.4416 2.38447,-0.44161 2.29615,-0.88322 2.29615,-0.4416 2.20783,-0.88322 2.20784,-0.88321 2.11952,-1.32483 2.07537,-1.32482 1.98705,-0.88321 1.98706,-1.32483 1.85458,-1.76643 1.81043,-1.32482 1.76627,-1.76643 1.6338,-1.76643 1.58964,-1.76643 1.50133,-1.76643 1.36886,-1.76643 1.3247,-2.20804 1.23639,-2.20803 1.10392,-1.76643 1.0156,-2.20804 0.88314,-2.64965 0.83898,-2.20804 0.66235,-2.20803 0.57403,-2.64965 0.44157,-2.20804 0.35326,-2.64964 0.17662,-2.64965 0.0442,-2.64964 c 0,-27.82128 -22.91735,-49.46004 -49.49971,-49.46004 -27.90706,0 -50.86857,21.63876 -50.86857,49.46004 0,28.26288 22.96151,49.46004 50.86857,49.46004 z" />
      <path
         inkscape:connector-curvature="0"
         style="font-style:normal;font-variant:normal;font-weight:normal;font-stretch:normal;letter-spacing:normal;word-spacing:normal;text-anchor:start;fill:#ffff00;fill-opacity:1;fill-rule:evenodd;stroke:#ffff00;stroke-width:0;stroke-linecap:butt;stroke-linejoin:miter;stroke-miterlimit:10.43299961;stroke-dasharray:none;stroke-dashoffset:0;stroke-opacity:1"
         id="path300"
         d="m 554.0232,-249.68629 2.47277,0 2.47278,-0.44161 2.42862,-0.4416 2.42862,-0.44161 2.34031,-0.44161 2.34031,-0.44161 2.29615,-0.88321 2.20784,-0.88322 2.20783,-0.88321 2.11953,-1.32482 2.07536,-0.88322 2.03121,-1.32482 1.9429,-1.32482 1.85458,-1.32483 1.81043,-1.76643 1.72211,-1.76643 1.67796,-1.76643 1.54548,-1.76643 1.50133,-1.76643 1.41302,-1.76643 1.28054,-2.20804 1.23639,-1.76643 1.10392,-2.20803 1.01561,-2.20804 0.88313,-2.20804 0.79482,-2.64964 0.70651,-2.20804 0.52988,-2.20804 0.48573,-2.64964 0.30909,-2.64965 0.17663,-2.64964 0.0883,-2.20804 c 0,-28.26288 -22.78488,-49.90165 -49.4997,-49.90165 -27.95122,0 -50.7361,21.63877 -50.7361,49.90165 0,27.82127 22.78488,49.46004 50.7361,49.46004 z" />
      <path
         inkscape:connector-curvature="0"
         style="font-style:normal;font-variant:normal;font-weight:normal;font-stretch:normal;letter-spacing:normal;word-spacing:normal;text-anchor:start;fill:#f9da00;fill-opacity:1;stroke:#000000;stroke-width:10.15739536;stroke-linecap:butt;stroke-linejoin:miter;stroke-miterlimit:10.43299961;stroke-dasharray:none;stroke-dashoffset:0;stroke-opacity:1"
         id="path302"
         d="m 554.0232,-249.68629 2.47277,0 2.47278,-0.44161 2.42862,-0.4416 2.42862,-0.44161 2.34031,-0.44161 2.34031,-0.44161 2.29615,-0.88321 2.20784,-0.88322 2.20783,-0.88321 2.11953,-1.32482 2.07536,-0.88322 2.03121,-1.32482 1.9429,-1.32482 1.85458,-1.32483 1.81043,-1.76643 1.72211,-1.76643 1.67796,-1.76643 1.54548,-1.76643 1.50133,-1.76643 1.41302,-1.76643 1.28054,-2.20804 1.23639,-1.76643 1.10392,-2.20803 1.01561,-2.20804 0.88313,-2.20804 0.79482,-2.64964 0.70651,-2.20804 0.52988,-2.20804 0.48573,-2.64964 0.30909,-2.64965 0.17663,-2.64964 0.0883,-2.20804 c 0,-28.26288 -22.78488,-49.90165 -49.4997,-49.90165 -27.95122,0 -50.7361,21.63877 -50.7361,49.90165 0,27.82127 22.78488,49.46004 50.7361,49.46004 z" />
      <path
         inkscape:connector-curvature="0"
         style="font-style:normal;font-variant:normal;font-weight:normal;font-stretch:normal;letter-spacing:normal;word-spacing:normal;text-anchor:start;fill:#ffff00;fill-opacity:1;fill-rule:evenodd;stroke:#ffff00;stroke-width:0;stroke-linecap:butt;stroke-linejoin:miter;stroke-miterlimit:10.43299961;stroke-dasharray:none;stroke-dashoffset:0;stroke-opacity:1"
         id="path304"
         d="m 479.13336,-216.56572 2.51694,0 2.42862,-0.44161 2.42862,-0.44161 2.38446,-0.44161 2.38447,-0.4416 2.29615,-0.88322 2.29615,-0.44161 2.20783,-0.88321 2.20784,-1.32482 2.11952,-0.88322 2.07537,-1.32482 1.98705,-1.32482 1.98706,-1.32483 1.85458,-1.76643 1.81043,-1.32482 1.76627,-1.76643 1.6338,-1.76643 1.58964,-1.76643 1.50133,-2.20804 1.36886,-1.76643 1.3247,-2.20804 1.23639,-2.20803 1.10392,-2.20804 1.0156,-2.20804 0.88314,-2.20804 0.83898,-2.20803 0.66235,-2.64965 0.57403,-2.20804 0.44157,-2.64964 0.35326,-2.64965 0.17662,-2.64964 0.0442,-2.64965 c 0,-26.49645 -22.91735,-49.46004 -49.49971,-49.46004 -27.90706,0 -50.86857,22.96359 -50.86857,49.46004 0,28.26288 22.96151,51.22648 50.86857,51.22648 z" />
      <path
         inkscape:connector-curvature="0"
         style="font-style:normal;font-variant:normal;font-weight:normal;font-stretch:normal;letter-spacing:normal;word-spacing:normal;text-anchor:start;fill:#f9da00;fill-opacity:1;stroke:#000000;stroke-width:10.15739536;stroke-linecap:butt;stroke-linejoin:miter;stroke-miterlimit:10.43299961;stroke-dasharray:none;stroke-dashoffset:0;stroke-opacity:1"
         id="path306"
         d="m 479.13336,-216.56572 2.51694,0 2.42862,-0.44161 2.42862,-0.44161 2.38446,-0.44161 2.38447,-0.4416 2.29615,-0.88322 2.29615,-0.44161 2.20783,-0.88321 2.20784,-1.32482 2.11952,-0.88322 2.07537,-1.32482 1.98705,-1.32482 1.98706,-1.32483 1.85458,-1.76643 1.81043,-1.32482 1.76627,-1.76643 1.6338,-1.76643 1.58964,-1.76643 1.50133,-2.20804 1.36886,-1.76643 1.3247,-2.20804 1.23639,-2.20803 1.10392,-2.20804 1.0156,-2.20804 0.88314,-2.20804 0.83898,-2.20803 0.66235,-2.64965 0.57403,-2.20804 0.44157,-2.64964 0.35326,-2.64965 0.17662,-2.64964 0.0442,-2.64965 c 0,-26.49645 -22.91735,-49.46004 -49.49971,-49.46004 -27.90706,0 -50.86857,22.96359 -50.86857,49.46004 0,28.26288 22.96151,51.22648 50.86857,51.22648 z" />
      <path
         sodipodi:nodetypes="ccccccccccccccccccccccccccccccccccccccccccccccccccccccccscccccccccccc"
         inkscape:connector-curvature="0"
         style="font-style:normal;font-variant:normal;font-weight:normal;font-stretch:normal;letter-spacing:normal;word-spacing:normal;text-anchor:start;fill:#ff9933;fill-opacity:1;fill-rule:evenodd;stroke:#ff9933;stroke-width:0;stroke-linecap:butt;stroke-linejoin:miter;stroke-miterlimit:10.43299961;stroke-dasharray:none;stroke-dashoffset:0;stroke-opacity:1"
         id="path308"
         d="m 176.96878,-263.81773 -0.0442,0 0,0 -0.0442,0 -0.0442,0.44161 -0.0883,0 -0.0441,0.44161 -0.13247,0 -0.0883,0.4416 -0.0883,0 -0.13247,0.44161 -0.13247,0.44161 -0.13247,0.44161 -0.13247,0.4416 -0.13247,0 -0.17663,0.44161 -0.13247,0.88322 -0.3091,0.88321 -0.35325,0.88322 -0.3091,1.32482 -0.3091,0.88321 -0.26494,1.32483 -0.26494,1.32482 -0.26494,1.32482 -0.17662,1.32482 -0.17663,1.32483 -0.0883,0.88321 -0.0442,1.32482 0,1.32483 0.0442,0.4416 0.0442,0.88322 0.0883,0.44161 0.0883,0.4416 0.13247,0.88322 0.13247,0.44161 0.17663,0.4416 0.17662,0.44161 0.22079,0.44161 0.22078,0.44161 0.26494,0.4416 0.3091,0.44161 0.3091,0.44161 0.35325,0.44161 0.39741,0.4416 0.39741,0.44161 0.44157,0 0.48572,0.44161 0.52988,0.44161 0.52988,0 0.57404,0.4416 0.6182,0 0.66235,0 0.70651,0 c 0,0 -12.66665,25.92376 -1.31837,32.10626 0,0 -2.06527,12.4961 2.92444,32.81005 0,0 -2.42862,52.13832 17.75101,62.7369 7.58864,4.37174 16.72667,23.97625 43.32035,34.33977 40.56489,15.808075 110.97022,21.786705 193.78492,11.117176 135.73783,-18.105909 210.80429,-46.810396 250.10379,-110.843486 0,0 11.39244,-17.66431 -1.36886,-32.67896 l 0,0 c 0,0 15.36655,-26.93806 -2.42862,-33.12057 0,0 17.79517,-33.12056 0,-39.30307 l 0,0 c 0,0 8.83135,-15.45626 0,-29.5877 0,0 11.39244,-35.3286 -3.79748,-35.3286 0,0 18.9874,-24.28842 6.2261,-50.78487 0,0 -32.94093,91.41276 -206.83018,134.6903 -72.41706,18.98912 -274.25752,8.83215 -302.16458,-3.97447 z" />
      <path
         sodipodi:nodetypes="ccccccccccccccccccccccccccccccccccccccccccccccccccc"
         inkscape:connector-curvature="0"
         style="font-style:normal;font-variant:normal;font-weight:normal;font-stretch:normal;letter-spacing:normal;word-spacing:normal;text-anchor:start;fill:none;stroke:#000000;stroke-width:10.15739536;stroke-linecap:butt;stroke-linejoin:miter;stroke-miterlimit:10.43299961;stroke-dasharray:none;stroke-dashoffset:0;stroke-opacity:1"
         id="path310"
         d="m 176.96878,-263.81773 -0.0442,0 0,0 -0.0442,0 -0.0442,0.44161 -0.0883,0 -0.0441,0.44161 -0.13247,0 -0.0883,0.4416 -0.0883,0 -0.13247,0.44161 -0.13247,0.44161 -0.13247,0.44161 -0.13247,0.4416 -0.13247,0 -0.17663,0.44161 -0.13247,0.88322 -0.3091,0.88321 -0.35325,0.88322 -0.3091,1.32482 -0.3091,0.88321 -0.26494,1.32483 -0.26494,1.32482 -0.26494,1.32482 -0.17662,1.32482 -0.17663,1.32483 -0.0883,0.88321 -0.0442,1.32482 0,1.32483 0.0442,0.4416 0.0442,0.88322 0.0883,0.44161 0.0883,0.4416 0.13247,0.88322 c 2.26146,8.02982 11.1676,6.12883 5.47647,10.91959 0,0 -16.91818,21.02951 4.58101,30.59565 -12.50616,3.13716 -10.08086,16.68909 1.52289,24.25186 -3.10908,4.85017 -13.2568,13.5032 -1.71654,30.69968 -6.52765,11.93216 6.62379,33.41632 21.39863,39.39912 0.55402,25.589818 95.59986,61.091057 232.70654,43.426756 135.73783,-18.105909 210.80429,-46.810396 250.10379,-110.843486 0,0 11.39244,-17.66431 -1.36886,-32.67896 l 0,0 c 0,0 15.36655,-26.93806 -2.42862,-33.12057 0,0 17.79517,-33.12056 0,-39.30307 l 0,0 c 0,0 8.83135,-15.45626 0,-29.5877 0,0 11.39244,-35.3286 -3.79748,-35.3286 0,0 18.9874,-24.28842 6.2261,-50.78487 0,0 -32.94093,91.41276 -206.83018,134.6903 -72.41706,18.98912 -274.25752,8.83215 -302.16458,-3.97447 z" />
      <path
         inkscape:connector-curvature="0"
         style="font-style:normal;font-variant:normal;font-weight:normal;font-stretch:normal;letter-spacing:normal;word-spacing:normal;text-anchor:start;fill:none;stroke:#000000;stroke-width:3.80895686;stroke-linecap:butt;stroke-linejoin:miter;stroke-miterlimit:10.43299961;stroke-dasharray:none;stroke-dashoffset:0;stroke-opacity:1"
         id="path312"
         d="m 679.73744,-343.74869 c 0,0 -62.26101,170.0189 -498.97118,107.75223" />
      <path
         inkscape:connector-curvature="0"
         style="font-style:normal;font-variant:normal;font-weight:normal;font-stretch:normal;letter-spacing:normal;word-spacing:normal;text-anchor:start;fill:none;stroke:#000000;stroke-width:3.80895686;stroke-linecap:butt;stroke-linejoin:miter;stroke-miterlimit:10.43299961;stroke-dasharray:none;stroke-dashoffset:0;stroke-opacity:1"
         id="path314"
         d="m 680.97383,-308.42009 c 0,0 -68.48711,161.62836 -488.85929,108.19384" />
      <path
         inkscape:connector-curvature="0"
         style="font-style:normal;font-variant:normal;font-weight:normal;font-stretch:normal;letter-spacing:normal;word-spacing:normal;text-anchor:start;fill:none;stroke:#000000;stroke-width:3.80895686;stroke-linecap:butt;stroke-linejoin:miter;stroke-miterlimit:10.43299961;stroke-dasharray:none;stroke-dashoffset:0;stroke-opacity:1"
         id="path316"
         d="m 683.53492,-277.94917 c 0,0 -59.65576,161.62835 -497.77895,100.68652" />
      <path
         inkscape:connector-curvature="0"
         style="font-style:normal;font-variant:normal;font-weight:normal;font-stretch:normal;letter-spacing:normal;word-spacing:normal;text-anchor:start;fill:none;stroke:#000000;stroke-width:3.80895686;stroke-linecap:butt;stroke-linejoin:miter;stroke-miterlimit:10.43299961;stroke-dasharray:none;stroke-dashoffset:0;stroke-opacity:1"
         id="path318"
         d="m 683.53492,-246.15343 c 0,0 -57.09467,162.95318 -497.77895,99.3617" />
      <path
         inkscape:connector-curvature="0"
         style="font-style:normal;font-variant:normal;font-weight:normal;font-stretch:normal;letter-spacing:normal;word-spacing:normal;text-anchor:start;fill:none;stroke:#000000;stroke-width:3.80895686;stroke-linecap:butt;stroke-linejoin:miter;stroke-miterlimit:10.43299961;stroke-dasharray:none;stroke-dashoffset:0;stroke-opacity:1"
         id="path320"
         d="m 680.97383,-204.20071 c 0,0 -82.44064,155.00424 -479.85132,94.50401" />
    </g>
  </g>
</svg>
